<svg xmlns="http://www.w3.org/2000/svg" xmlns:xlink="http://www.w3.org/1999/xlink" width="222" zoomAndPan="magnify" viewBox="0 0 166.5 153.000002" height="204" preserveAspectRatio="xMidYMid meet" version="1.0"><path fill="#ffffff" d="M 45.839844 21.878906 C 45.703125 22.003906 45.75 87.421875 45.886719 88.941406 C 46.554688 96.773438 49.4375 103.847656 54.433594 109.886719 C 55.523438 111.203125 57.953125 113.644531 59.316406 114.757812 C 60.335938 115.605469 63.0625 117.605469 63.1875 117.605469 C 63.207031 117.605469 63.503906 117.777344 63.832031 117.992188 C 64.164062 118.195312 65.023438 118.683594 65.738281 119.058594 C 74.96875 123.929688 85.84375 124.6875 95.765625 121.160156 C 101.019531 119.285156 105.617188 116.355469 109.613281 112.339844 C 113.078125 108.851562 115.585938 105.175781 117.503906 100.769531 C 119.183594 96.886719 120.136719 92.972656 120.453125 88.660156 C 120.546875 87.535156 120.566406 76.761719 120.546875 54.433594 L 120.511719 21.855469 L 83.210938 21.820312 C 62.699219 21.808594 45.875 21.832031 45.839844 21.878906 Z M 120.285156 55.058594 C 120.285156 81.644531 120.25 88.191406 120.136719 89.339844 C 119.726562 93.1875 118.933594 96.492188 117.617188 99.785156 C 117.039062 101.226562 115.617188 104.109375 115.390625 104.277344 C 115.300781 104.347656 115.234375 104.472656 115.234375 104.539062 C 115.234375 104.765625 113.710938 107.09375 112.632812 108.488281 C 106.980469 115.890625 98.796875 120.875 89.578125 122.53125 C 88.308594 122.757812 86.796875 122.917969 84.992188 123.007812 L 83.527344 123.089844 L 83.609375 122.816406 C 83.855469 121.953125 83.777344 121.148438 83.378906 120.625 C 83.164062 120.316406 83.0625 120.476562 83.210938 120.910156 C 83.277344 121.101562 83.371094 121.667969 83.402344 122.15625 C 83.484375 123.019531 83.472656 123.054688 83.234375 123.054688 C 83.097656 123.054688 82.960938 122.964844 82.925781 122.851562 C 82.890625 122.746094 82.632812 122.179688 82.335938 121.613281 C 81.984375 120.910156 81.847656 120.523438 81.925781 120.441406 C 81.984375 120.386719 82.597656 120.296875 83.277344 120.261719 C 84.675781 120.183594 85.152344 120.035156 85.433594 119.601562 C 85.652344 119.273438 85.605469 118.582031 85.367188 118.355469 C 85.265625 118.261719 85.253906 118.308594 85.308594 118.546875 C 85.367188 118.761719 85.34375 118.855469 85.21875 118.855469 C 85.128906 118.855469 85.039062 119.023438 84.992188 119.308594 C 84.914062 119.832031 84.878906 119.839844 82.996094 119.910156 C 81.335938 119.976562 80.03125 120.5 78.875 121.566406 C 78.261719 122.125 78.296875 122.316406 78.90625 121.828125 C 79.625 121.261719 80.734375 120.691406 81.324219 120.589844 C 81.734375 120.535156 81.746094 120.535156 81.746094 120.886719 C 81.746094 121.273438 82.0625 121.988281 82.496094 122.554688 C 82.644531 122.746094 82.765625 122.941406 82.765625 122.996094 C 82.765625 123.097656 80.28125 122.972656 79.023438 122.816406 C 78.554688 122.746094 77.941406 122.679688 77.660156 122.644531 C 75.523438 122.417969 71.050781 121.148438 68.519531 120.046875 C 66.195312 119.035156 63.480469 117.546875 63.664062 117.378906 C 63.707031 117.332031 64.183594 117.128906 64.71875 116.925781 C 65.695312 116.5625 67.183594 115.855469 67.386719 115.664062 C 67.441406 115.605469 67.035156 115.753906 66.476562 115.992188 C 65.320312 116.492188 63.265625 117.207031 63.207031 117.140625 C 63.1875 117.117188 62.867188 115.949219 62.515625 114.539062 C 60.40625 106.265625 58.089844 99.636719 55.386719 94.128906 C 54.886719 93.109375 54.457031 92.292969 54.433594 92.324219 C 54.410156 92.347656 54.773438 93.234375 55.25 94.289062 C 56.953125 98.082031 58.632812 102.632812 60.167969 107.558594 C 61.175781 110.804688 62.824219 116.664062 62.765625 116.832031 C 62.71875 116.957031 61.390625 116.027344 59.859375 114.8125 C 58.566406 113.78125 55.945312 111.226562 54.867188 109.941406 C 50.722656 105.015625 48.101562 99.589844 46.792969 93.277344 L 46.441406 91.597656 L 46.917969 90.726562 C 48.066406 88.589844 49.257812 86.832031 50.3125 85.753906 C 51.003906 85.027344 50.902344 84.957031 50.097656 85.59375 C 49.472656 86.09375 48.65625 87.070312 47.976562 88.148438 C 47.519531 88.875 46.738281 90.40625 46.636719 90.804688 C 46.5 91.347656 46.351562 90.953125 46.214844 89.589844 C 46.089844 88.433594 46.054688 81.667969 46.023438 55.25 C 46 37.15625 46.011719 22.296875 46.054688 22.242188 C 46.089844 22.183594 60.90625 22.148438 83.199219 22.160156 L 120.285156 22.195312 Z M 120.285156 55.058594 " fill-opacity="1" fill-rule="nonzero"/><path fill="#ffffff" d="M 84.128906 24.875 C 77.375 25.453125 70.78125 28.472656 65.808594 33.261719 C 61.574219 37.339844 58.804688 42.070312 57.339844 47.703125 C 56.589844 50.597656 56.488281 51.585938 56.5 55.339844 C 56.5 57.28125 56.558594 58.839844 56.636719 59.144531 C 56.738281 59.574219 56.738281 59.496094 56.679688 58.632812 C 56.546875 56.785156 56.613281 53.046875 56.816406 51.480469 C 57.53125 46.078125 59.757812 40.855469 63.1875 36.554688 C 64.878906 34.421875 67.589844 31.890625 69.722656 30.425781 C 75.253906 26.632812 81.824219 24.804688 88.5 25.203125 C 90.769531 25.339844 92.019531 25.519531 94.128906 26.054688 C 99.476562 27.394531 104.277344 30.117188 108.128906 34 C 111.816406 37.710938 114.414062 42.117188 115.800781 47 C 116.605469 49.847656 116.9375 52.34375 116.9375 55.511719 C 116.9375 59.460938 116.324219 62.789062 114.9375 66.375 C 113.78125 69.394531 111.542969 73.152344 109.695312 75.207031 C 109.433594 75.492188 109.433594 75.503906 109.660156 75.320312 C 110.113281 74.945312 111.351562 73.355469 112.246094 72.007812 C 116.675781 65.308594 118.265625 57.167969 116.707031 49.097656 C 116.414062 47.578125 115.597656 44.933594 114.984375 43.480469 C 112.054688 36.578125 106.914062 31.117188 100.304688 27.871094 C 98.332031 26.894531 96.96875 26.382812 94.96875 25.839844 C 91.566406 24.898438 87.738281 24.566406 84.128906 24.875 Z M 84.128906 24.875 " fill-opacity="1" fill-rule="nonzero"/><path fill="#ffffff" d="M 82.710938 36.042969 C 77.070312 36.917969 73.074219 40.324219 70.554688 46.398438 C 69.507812 48.917969 68.636719 51.789062 67.910156 55.171875 C 67.476562 57.125 67.714844 56.523438 68.40625 53.921875 C 69.328125 50.425781 70.441406 47.328125 71.597656 45.070312 C 73.824219 40.6875 77.011719 37.882812 80.984375 36.792969 C 83.0625 36.226562 83.710938 36.15625 86.796875 36.15625 C 90.226562 36.167969 89.828125 36.019531 86.171875 35.941406 C 84.402344 35.898438 83.449219 35.929688 82.710938 36.042969 Z M 82.710938 36.042969 " fill-opacity="1" fill-rule="nonzero"/><path fill="#ffffff" d="M 89.953125 36.292969 C 90.054688 36.316406 90.214844 36.316406 90.292969 36.292969 C 90.363281 36.257812 90.28125 36.238281 90.089844 36.238281 C 89.90625 36.238281 89.839844 36.257812 89.953125 36.292969 Z M 89.953125 36.292969 " fill-opacity="1" fill-rule="nonzero"/><path fill="#ffffff" d="M 92.757812 36.601562 C 92.757812 36.632812 93.03125 36.738281 93.359375 36.839844 C 94.652344 37.257812 96.039062 38.292969 96.402344 39.109375 C 96.628906 39.609375 96.683594 40.460938 96.503906 40.914062 C 96.445312 41.074219 96.433594 41.210938 96.492188 41.210938 C 96.660156 41.210938 96.957031 40.324219 96.957031 39.8125 C 96.957031 38.894531 96.09375 37.769531 94.9375 37.191406 C 94.128906 36.78125 92.757812 36.40625 92.757812 36.601562 Z M 92.757812 36.601562 " fill-opacity="1" fill-rule="nonzero"/><path fill="#ffffff" d="M 90.464844 36.746094 C 90.542969 36.78125 90.644531 36.769531 90.679688 36.738281 C 90.726562 36.703125 90.65625 36.667969 90.53125 36.679688 C 90.40625 36.679688 90.375 36.714844 90.464844 36.746094 Z M 90.464844 36.746094 " fill-opacity="1" fill-rule="nonzero"/><path fill="#ffffff" d="M 89.292969 36.90625 C 89.046875 36.964844 88.589844 37.066406 88.273438 37.132812 C 86.808594 37.464844 85.308594 38.132812 84.175781 38.972656 C 83.253906 39.652344 82.925781 39.8125 81.6875 40.199219 C 80.371094 40.605469 79.613281 41.105469 77.875 42.683594 C 77.101562 43.386719 76.21875 44.148438 75.898438 44.386719 C 74.945312 45.101562 74.300781 45.804688 73.347656 47.203125 C 72.847656 47.929688 71.9375 49.0625 71.324219 49.722656 C 70.328125 50.8125 69.484375 52.0625 69.484375 52.457031 C 69.484375 52.550781 69.621094 52.355469 69.78125 52.050781 C 70.179688 51.3125 70.222656 51.253906 71.722656 49.65625 C 72.414062 48.917969 73.367188 47.769531 73.832031 47.113281 C 74.765625 45.796875 74.921875 45.636719 76.261719 44.59375 C 76.773438 44.195312 77.648438 43.445312 78.203125 42.921875 C 78.773438 42.414062 79.429688 41.832031 79.667969 41.640625 C 80.167969 41.230469 81.449219 40.605469 82.199219 40.414062 C 82.902344 40.222656 83.472656 39.925781 84.402344 39.222656 C 85.878906 38.121094 86.761719 37.734375 89.035156 37.132812 C 90.203125 36.828125 90.394531 36.65625 89.292969 36.90625 Z M 89.292969 36.90625 " fill-opacity="1" fill-rule="nonzero"/><path fill="#ffffff" d="M 92.460938 36.996094 C 92.507812 37.054688 92.871094 37.292969 93.269531 37.519531 C 94.222656 38.042969 94.753906 38.585938 94.835938 39.074219 C 94.890625 39.449219 94.777344 40.402344 94.628906 40.777344 C 94.480469 41.140625 94.675781 40.992188 94.914062 40.550781 C 95.105469 40.199219 95.128906 40.175781 95.074219 40.4375 C 95.039062 40.617188 95.050781 40.753906 95.105469 40.753906 C 95.242188 40.753906 95.59375 40.015625 95.59375 39.722656 C 95.59375 39.335938 95.800781 39.597656 95.878906 40.085938 C 95.980469 40.652344 96.164062 40.472656 96.164062 39.8125 C 96.164062 39.371094 95.890625 38.710938 95.707031 38.710938 C 95.652344 38.710938 95.570312 38.609375 95.539062 38.484375 C 95.425781 38.132812 95.253906 38.210938 95.253906 38.621094 L 95.242188 38.996094 L 95.074219 38.597656 C 94.800781 37.960938 94.289062 37.589844 93.085938 37.132812 C 92.382812 36.863281 92.382812 36.863281 92.460938 36.996094 Z M 92.460938 36.996094 " fill-opacity="1" fill-rule="nonzero"/><path fill="#ffffff" d="M 90.542969 37.203125 C 90.613281 37.269531 90.941406 37.429688 91.292969 37.566406 C 91.972656 37.835938 92.667969 38.460938 92.859375 38.972656 C 92.925781 39.15625 92.984375 39.609375 92.996094 39.996094 C 93.007812 40.6875 93.007812 40.6875 93.152344 40.359375 C 93.621094 39.347656 93.007812 37.929688 91.90625 37.453125 C 91.371094 37.226562 90.375 37.042969 90.542969 37.203125 Z M 90.542969 37.203125 " fill-opacity="1" fill-rule="nonzero"/><path fill="#ffffff" d="M 88.25 37.667969 C 88.296875 37.722656 88.160156 37.816406 87.933594 37.847656 C 87.296875 37.972656 87.34375 38.144531 88.011719 38.144531 C 88.636719 38.144531 89 38.3125 89.953125 39.050781 C 90.382812 39.394531 90.339844 39.1875 89.851562 38.621094 C 89.554688 38.269531 89.5 38.144531 89.636719 38.144531 C 89.917969 38.144531 91.429688 38.882812 91.632812 39.121094 C 91.835938 39.359375 92.15625 40.277344 92.222656 40.8125 L 92.257812 41.152344 L 92.347656 40.835938 C 92.472656 40.4375 92.15625 39.109375 91.871094 38.792969 C 91.769531 38.675781 91.496094 38.484375 91.28125 38.371094 C 90.453125 37.949219 88.089844 37.394531 88.25 37.667969 Z M 88.25 37.667969 " fill-opacity="1" fill-rule="nonzero"/><path fill="#ffffff" d="M 93.574219 38.667969 C 93.675781 39.050781 93.640625 39.597656 93.472656 40.265625 C 93.382812 40.664062 93.597656 40.574219 93.8125 40.128906 C 94.128906 39.472656 93.996094 38.429688 93.585938 38.292969 C 93.484375 38.257812 93.484375 38.347656 93.574219 38.667969 Z M 93.574219 38.667969 " fill-opacity="1" fill-rule="nonzero"/><path fill="#ffffff" d="M 85.832031 38.699219 C 85.832031 38.859375 86.140625 38.9375 86.742188 38.9375 C 87.34375 38.9375 87.648438 38.859375 87.648438 38.699219 C 87.648438 38.644531 87.238281 38.597656 86.742188 38.597656 C 86.242188 38.597656 85.832031 38.644531 85.832031 38.699219 Z M 85.832031 38.699219 " fill-opacity="1" fill-rule="nonzero"/><path fill="#ffffff" d="M 89.011719 39.277344 C 89.167969 39.402344 89.328125 39.507812 89.363281 39.507812 C 89.589844 39.507812 90.269531 40.765625 90.382812 41.378906 C 90.453125 41.753906 90.53125 42.175781 90.554688 42.308594 L 90.601562 42.570312 L 91.203125 42.332031 C 91.519531 42.207031 92.097656 41.9375 92.472656 41.730469 C 93.132812 41.378906 93.1875 41.367188 94.480469 41.367188 C 95.640625 41.378906 95.777344 41.367188 95.539062 41.230469 C 95.378906 41.152344 94.960938 41.085938 94.597656 41.085938 C 94.242188 41.074219 93.789062 41.015625 93.585938 40.949219 C 93.269531 40.847656 93.152344 40.878906 92.394531 41.332031 C 91.328125 41.980469 91.347656 41.96875 91.542969 41.59375 C 91.703125 41.277344 91.769531 40.867188 91.746094 40.324219 C 91.722656 39.914062 91.519531 40.140625 91.371094 40.730469 L 91.234375 41.265625 L 91.089844 40.585938 C 90.894531 39.722656 90.714844 39.527344 90.714844 40.175781 L 90.714844 40.664062 L 90.351562 40.121094 C 89.941406 39.519531 89.339844 39.050781 88.964844 39.050781 C 88.738281 39.050781 88.738281 39.0625 89.011719 39.277344 Z M 91.101562 41.914062 C 91.15625 42.039062 91.109375 42.140625 90.953125 42.21875 C 90.644531 42.390625 90.589844 42.253906 90.679688 41.5625 L 90.746094 40.960938 L 90.882812 41.34375 C 90.964844 41.550781 91.066406 41.8125 91.101562 41.914062 Z M 91.101562 41.914062 " fill-opacity="1" fill-rule="nonzero"/><path fill="#ffffff" d="M 87.945312 39.449219 C 88.714844 39.789062 89.238281 40.710938 89.238281 41.742188 C 89.238281 42.277344 89.398438 42.480469 89.511719 42.082031 C 89.851562 40.800781 89 39.257812 87.945312 39.289062 L 87.59375 39.300781 Z M 87.945312 39.449219 " fill-opacity="1" fill-rule="nonzero"/><path fill="#ffffff" d="M 87.863281 41.128906 C 88.195312 41.5625 88.464844 42.082031 88.546875 42.414062 C 88.660156 42.878906 88.703125 42.933594 88.804688 42.765625 C 89.089844 42.242188 88.476562 40.960938 87.773438 40.585938 C 87.582031 40.492188 87.410156 40.414062 87.375 40.414062 C 87.34375 40.414062 87.558594 40.742188 87.863281 41.128906 Z M 87.863281 41.128906 " fill-opacity="1" fill-rule="nonzero"/><path fill="#ffffff" d="M 84.355469 40.6875 C 84.355469 41.0625 84.789062 41.832031 85.152344 42.09375 C 85.671875 42.480469 87.421875 42.867188 87.421875 42.59375 C 87.421875 42.546875 87.058594 42.414062 86.628906 42.296875 C 85.695312 42.058594 84.992188 41.574219 84.617188 40.925781 C 84.4375 40.605469 84.355469 40.539062 84.355469 40.6875 Z M 84.355469 40.6875 " fill-opacity="1" fill-rule="nonzero"/><path fill="#ffffff" d="M 82.3125 41.9375 C 82.3125 42.753906 83.164062 43.808594 84.414062 44.511719 C 85.0625 44.875 85.0625 44.875 84.832031 45.101562 C 84.605469 45.316406 84.582031 45.316406 84.140625 45.136719 C 83.628906 44.933594 82.882812 44.886719 82.882812 45.070312 C 82.882812 45.160156 83.5625 45.410156 83.847656 45.410156 C 83.914062 45.410156 84.039062 45.464844 84.128906 45.523438 C 84.265625 45.613281 84.21875 45.703125 83.847656 46.035156 C 83.597656 46.25 83.3125 46.429688 83.199219 46.429688 C 82.996094 46.429688 82.074219 45.75 81.316406 45.023438 C 80.714844 44.457031 80.203125 43.742188 80.121094 43.367188 C 80.089844 43.171875 80.066406 43.230469 80.054688 43.546875 C 80.03125 44.386719 81.109375 45.660156 82.40625 46.292969 C 82.734375 46.464844 82.984375 46.644531 82.960938 46.703125 C 82.914062 46.851562 81.074219 48.132812 80.917969 48.132812 C 80.769531 48.132812 79.292969 46.691406 79.375 46.613281 C 79.40625 46.578125 79.703125 46.644531 80.03125 46.769531 C 80.359375 46.894531 80.941406 47.03125 81.324219 47.066406 C 81.972656 47.125 82.007812 47.113281 81.8125 46.953125 C 81.699219 46.863281 81.324219 46.714844 80.972656 46.644531 C 80.429688 46.523438 80.316406 46.441406 80.042969 46.011719 C 79.871094 45.75 79.667969 45.203125 79.589844 44.820312 C 79.394531 43.855469 79.25 43.742188 79.25 44.535156 C 79.25 45.195312 79.453125 45.875 79.769531 46.214844 C 79.929688 46.386719 79.90625 46.40625 79.601562 46.453125 C 79.167969 46.523438 78.851562 46.203125 78.363281 45.238281 C 77.953125 44.445312 77.863281 44.707031 78.226562 45.660156 C 78.523438 46.441406 78.964844 46.964844 79.941406 47.691406 L 80.734375 48.28125 L 80.394531 48.496094 C 80.089844 48.699219 80.019531 48.699219 79.429688 48.554688 C 78.613281 48.335938 77.714844 47.613281 76.886719 46.5 C 76.523438 46.023438 76.582031 46.386719 76.96875 47.054688 C 77.570312 48.097656 78.566406 48.816406 79.417969 48.816406 C 79.828125 48.816406 79.90625 48.90625 79.691406 49.121094 C 79.613281 49.199219 79.5 49.496094 79.417969 49.800781 C 79.316406 50.222656 79.214844 50.382812 78.953125 50.507812 C 78.773438 50.585938 78.523438 50.753906 78.386719 50.878906 C 78.148438 51.085938 78.136719 51.085938 77.625 50.871094 C 76.886719 50.550781 75.867188 49.894531 75.367188 49.40625 C 74.855469 48.917969 74.808594 49.054688 75.265625 49.6875 C 75.785156 50.402344 77.207031 51.199219 77.964844 51.199219 C 78.148438 51.199219 78.148438 51.242188 78 51.765625 C 77.933594 52.015625 77.75 52.253906 77.523438 52.402344 C 77.035156 52.707031 75.84375 53.492188 75.660156 53.628906 C 75.332031 53.878906 73.492188 52.003906 73.175781 51.085938 C 73.085938 50.824219 73.003906 50.425781 73.003906 50.210938 C 73.003906 49.984375 72.960938 49.847656 72.890625 49.894531 C 72.6875 50.019531 72.765625 51.097656 73.027344 51.640625 C 73.347656 52.300781 74.289062 53.253906 74.945312 53.582031 C 75.21875 53.71875 75.457031 53.855469 75.480469 53.867188 C 75.503906 53.890625 75.367188 54.171875 75.171875 54.511719 C 74.980469 54.855469 74.558594 55.796875 74.242188 56.601562 C 73.9375 57.40625 73.550781 58.292969 73.390625 58.578125 L 73.105469 59.085938 L 73.425781 58.722656 C 73.59375 58.53125 73.96875 57.839844 74.242188 57.191406 C 75.421875 54.421875 75.886719 53.71875 76.875 53.195312 C 77.976562 52.605469 78.203125 52.378906 78.410156 51.699219 C 78.566406 51.117188 78.636719 51.050781 79.078125 50.859375 C 79.507812 50.675781 79.589844 50.574219 79.703125 50.152344 C 79.769531 49.882812 79.863281 49.574219 79.894531 49.460938 C 79.917969 49.347656 80.464844 48.929688 81.074219 48.519531 C 82.496094 47.613281 83.109375 47.125 84.457031 45.886719 C 85.59375 44.832031 85.910156 44.625 86.46875 44.613281 C 87.148438 44.613281 87.535156 44.46875 87.933594 44.105469 C 88.148438 43.886719 88.511719 43.660156 88.738281 43.59375 C 88.953125 43.511719 89.113281 43.433594 89.089844 43.410156 C 88.988281 43.308594 88.035156 43.730469 87.75 44 C 87.511719 44.230469 87.296875 44.308594 86.730469 44.351562 C 86.332031 44.375 85.808594 44.476562 85.582031 44.582031 L 85.152344 44.761719 L 84.5625 44.296875 C 83.640625 43.582031 82.890625 42.777344 82.597656 42.164062 C 82.335938 41.652344 82.324219 41.628906 82.3125 41.9375 Z M 82.3125 41.9375 " fill-opacity="1" fill-rule="nonzero"/><path fill="#ffffff" d="M 84.199219 42.582031 C 84.5625 42.992188 85.300781 43.355469 86.230469 43.59375 C 86.71875 43.71875 87.230469 43.820312 87.355469 43.820312 C 87.570312 43.808594 87.570312 43.796875 87.308594 43.648438 C 87.148438 43.558594 86.535156 43.320312 85.945312 43.128906 C 85.355469 42.921875 84.71875 42.660156 84.527344 42.546875 C 84.074219 42.277344 83.9375 42.289062 84.199219 42.582031 Z M 84.199219 42.582031 " fill-opacity="1" fill-rule="nonzero"/><path fill="#ffffff" d="M 97.46875 43.921875 C 97.820312 44.636719 98.308594 45.453125 98.546875 45.738281 C 99.011719 46.292969 99.214844 46.917969 99.226562 47.816406 L 99.226562 48.347656 L 100.304688 49.210938 C 100.90625 49.6875 101.984375 50.507812 102.722656 51.039062 C 103.449219 51.574219 104.164062 52.128906 104.3125 52.289062 C 104.664062 52.683594 104.628906 53.164062 104.234375 53.605469 C 103.902344 53.96875 103.894531 53.96875 103.734375 53.765625 C 103.585938 53.570312 103.539062 53.558594 103.074219 53.707031 C 102.746094 53.820312 102.496094 53.992188 102.328125 54.253906 C 101.984375 54.761719 101.996094 54.898438 102.359375 54.617188 C 102.644531 54.386719 103.15625 54.285156 103.0625 54.457031 C 103.042969 54.511719 102.949219 54.683594 102.871094 54.855469 C 102.734375 55.125 102.746094 55.195312 102.972656 55.570312 C 103.109375 55.796875 103.257812 55.953125 103.28125 55.921875 C 103.3125 55.886719 103.257812 55.726562 103.15625 55.582031 C 102.824219 55.070312 102.917969 54.875 103.757812 54.332031 C 104.902344 53.59375 105.152344 52.96875 104.640625 52.207031 C 104.503906 51.992188 103.3125 51.015625 102.007812 50.027344 L 99.625 48.234375 L 99.511719 47.363281 C 99.375 46.386719 99.203125 46.023438 98.613281 45.351562 C 98.386719 45.101562 98.207031 44.863281 98.207031 44.820312 C 98.207031 44.695312 97.171875 43.003906 96.992188 42.796875 C 96.898438 42.707031 97.117188 43.21875 97.46875 43.921875 Z M 97.46875 43.921875 " fill-opacity="1" fill-rule="nonzero"/><path fill="#ffffff" d="M 96.152344 46.089844 C 94.753906 46.261719 93.5625 47.054688 92.6875 48.417969 C 92.304688 49.03125 91.679688 50.496094 91.769531 50.585938 C 91.792969 50.621094 92.007812 50.390625 92.234375 50.097656 C 92.914062 49.210938 93.914062 48.234375 94.515625 47.851562 C 95.34375 47.328125 96.070312 47.113281 97.070312 47.113281 C 98.09375 47.113281 98.386719 46.964844 98.273438 46.511719 C 98.226562 46.316406 98.105469 46.191406 97.945312 46.160156 C 97.332031 46.035156 96.855469 46.011719 96.152344 46.089844 Z M 97.730469 46.53125 C 97.820312 46.589844 97.511719 46.644531 96.933594 46.679688 C 95.332031 46.78125 94.097656 47.496094 92.8125 49.074219 C 92.109375 49.949219 92.03125 49.949219 92.53125 49.074219 C 93.222656 47.859375 94.515625 46.828125 95.675781 46.554688 C 96.230469 46.417969 97.535156 46.40625 97.730469 46.53125 Z M 97.730469 46.53125 " fill-opacity="1" fill-rule="nonzero"/><path fill="#ffffff" d="M 76.296875 48.359375 C 76.296875 48.644531 77.113281 49.257812 77.875 49.53125 C 78.328125 49.699219 78.761719 49.835938 78.828125 49.835938 C 79.03125 49.824219 78.589844 49.519531 77.828125 49.132812 C 77.453125 48.941406 76.988281 48.667969 76.785156 48.519531 C 76.386719 48.222656 76.296875 48.191406 76.296875 48.359375 Z M 76.296875 48.359375 " fill-opacity="1" fill-rule="nonzero"/><path fill="#ffffff" d="M 96.785156 48.519531 C 96.296875 48.746094 95.550781 49.5625 95.199219 50.269531 C 94.777344 51.109375 94.890625 51.234375 95.390625 50.484375 C 96.058594 49.484375 96.992188 48.585938 97.378906 48.585938 C 97.625 48.585938 97.660156 48.566406 97.523438 48.472656 C 97.296875 48.328125 97.195312 48.335938 96.785156 48.519531 Z M 96.785156 48.519531 " fill-opacity="1" fill-rule="nonzero"/><path fill="#ffffff" d="M 96.785156 49.460938 C 96.457031 49.789062 95.59375 51.015625 95.59375 51.152344 C 95.59375 51.289062 96.617188 51.097656 97.128906 50.871094 C 97.398438 50.746094 97.707031 50.515625 97.808594 50.359375 C 97.988281 50.085938 97.988281 50.050781 97.742188 49.609375 C 97.433594 49.074219 97.21875 49.042969 96.785156 49.460938 Z M 97.410156 49.78125 C 97.660156 50.074219 97.421875 50.390625 96.660156 50.753906 C 96.253906 50.949219 95.890625 51.074219 95.855469 51.039062 C 95.789062 50.972656 97.058594 49.609375 97.183594 49.609375 C 97.230469 49.609375 97.332031 49.6875 97.410156 49.78125 Z M 97.410156 49.78125 " fill-opacity="1" fill-rule="nonzero"/><path fill="#ffffff" d="M 74.480469 50.992188 C 74.480469 51.234375 74.933594 51.699219 75.398438 51.949219 C 75.878906 52.199219 76.886719 52.207031 77.433594 51.96875 L 77.828125 51.789062 L 76.921875 51.789062 C 75.910156 51.800781 75.296875 51.605469 74.796875 51.117188 C 74.558594 50.890625 74.480469 50.859375 74.480469 50.992188 Z M 74.480469 50.992188 " fill-opacity="1" fill-rule="nonzero"/><path fill="#ffffff" d="M 71.769531 52.332031 C 71.757812 52.800781 71.972656 53.445312 72.246094 53.742188 C 72.449219 53.957031 72.6875 54.023438 73.503906 54.128906 C 74.070312 54.207031 74.550781 54.242188 74.570312 54.21875 C 74.675781 54.105469 73.902344 53.820312 73.335938 53.742188 C 72.992188 53.695312 72.652344 53.605469 72.5625 53.535156 C 72.472656 53.46875 72.257812 53.105469 72.085938 52.730469 C 71.847656 52.21875 71.769531 52.117188 71.769531 52.332031 Z M 71.769531 52.332031 " fill-opacity="1" fill-rule="nonzero"/><path fill="#ffffff" d="M 69.609375 53.070312 C 69.179688 53.628906 69.167969 54.605469 69.589844 54.988281 C 69.78125 55.160156 69.78125 55.136719 69.734375 54.546875 C 69.714844 54.207031 69.746094 53.683594 69.816406 53.402344 C 69.972656 52.765625 69.929688 52.683594 69.609375 53.070312 Z M 69.609375 53.070312 " fill-opacity="1" fill-rule="nonzero"/><path fill="#ffffff" d="M 101.019531 53.378906 C 100.613281 54.011719 100.769531 54.761719 101.339844 54.898438 C 101.746094 55 101.78125 54.898438 101.441406 54.558594 C 101.167969 54.285156 101.144531 54.195312 101.214844 53.695312 C 101.304688 53.070312 101.257812 53.003906 101.019531 53.378906 Z M 101.019531 53.378906 " fill-opacity="1" fill-rule="nonzero"/><path fill="#ffffff" d="M 69.941406 53.820312 C 69.941406 53.910156 70.179688 54.386719 70.472656 54.886719 C 71.050781 55.863281 71.269531 55.839844 70.847656 54.855469 C 70.597656 54.273438 69.941406 53.515625 69.941406 53.820312 Z M 69.941406 53.820312 " fill-opacity="1" fill-rule="nonzero"/><path fill="#ffffff" d="M 79.542969 55.285156 C 78.171875 55.820312 77.613281 56.578125 77.613281 57.894531 C 77.625 59.859375 78.273438 60.675781 80.835938 61.949219 C 82.164062 62.605469 82.609375 62.878906 83.128906 63.402344 C 83.664062 63.945312 83.835938 64.046875 84.175781 64.046875 C 84.777344 64.046875 85.332031 63.652344 85.546875 63.0625 C 85.664062 62.789062 85.71875 62.503906 85.695312 62.414062 C 85.664062 62.335938 85.605469 62.460938 85.558594 62.6875 C 85.457031 63.242188 84.832031 63.796875 84.3125 63.796875 C 83.980469 63.796875 83.789062 63.664062 83.027344 62.914062 C 82.484375 62.367188 81.835938 61.859375 81.347656 61.597656 C 79.441406 60.550781 78.339844 59.28125 78.339844 58.121094 C 78.339844 57.261719 78.816406 56.714844 80.054688 56.136719 C 80.589844 55.886719 80.621094 55.851562 80.269531 55.921875 C 79.691406 56.011719 78.726562 56.5 78.464844 56.828125 C 78.214844 57.148438 78.113281 57.167969 78.113281 56.929688 C 78.113281 56.625 78.898438 55.886719 79.488281 55.636719 C 79.792969 55.5 80.304688 55.351562 80.609375 55.320312 C 81.074219 55.261719 81.246094 55.308594 81.679688 55.558594 C 81.949219 55.714844 82.324219 56.023438 82.496094 56.214844 L 82.789062 56.589844 L 82.5625 56.191406 C 82.4375 55.976562 82.097656 55.625 81.800781 55.421875 C 81.359375 55.125 81.15625 55.058594 80.679688 55.058594 C 80.359375 55.070312 79.851562 55.171875 79.542969 55.285156 Z M 79.542969 55.285156 " fill-opacity="1" fill-rule="nonzero"/><path fill="#ffffff" d="M 68.363281 56.148438 C 68.351562 56.660156 68.644531 57.417969 69.089844 58.03125 C 69.476562 58.554688 69.78125 58.757812 69.644531 58.40625 C 69.554688 58.191406 69.589844 58.191406 70.066406 58.429688 C 70.609375 58.714844 72.246094 58.714844 72.722656 58.429688 L 73.0625 58.226562 L 72.324219 58.292969 C 71.496094 58.371094 70.191406 58.203125 69.644531 57.941406 C 69.359375 57.804688 69.191406 57.566406 68.828125 56.785156 C 68.441406 55.953125 68.375 55.851562 68.363281 56.148438 Z M 68.363281 56.148438 " fill-opacity="1" fill-rule="nonzero"/><path fill="#ffffff" d="M 69.359375 56.183594 C 69.964844 57.023438 70.960938 57.554688 71.632812 57.386719 C 71.894531 57.316406 71.871094 57.292969 71.347656 57.113281 C 71.03125 57.011719 70.441406 56.679688 70.019531 56.386719 C 69.609375 56.089844 69.246094 55.851562 69.203125 55.851562 C 69.167969 55.851562 69.238281 56 69.359375 56.183594 Z M 69.359375 56.183594 " fill-opacity="1" fill-rule="nonzero"/><path fill="#ffffff" d="M 71.871094 55.898438 C 71.871094 55.933594 72.132812 56.035156 72.4375 56.136719 C 73.0625 56.339844 73.742188 56.296875 74.105469 56.023438 C 74.289062 55.875 74.164062 55.863281 73.097656 55.851562 C 72.414062 55.851562 71.871094 55.875 71.871094 55.898438 Z M 71.871094 55.898438 " fill-opacity="1" fill-rule="nonzero"/><path fill="#ffffff" d="M 71.53125 56.125 C 71.53125 56.328125 72.199219 56.761719 72.515625 56.761719 C 73.074219 56.761719 72.984375 56.488281 72.359375 56.308594 C 72.050781 56.214844 71.746094 56.125 71.675781 56.101562 C 71.597656 56.078125 71.53125 56.089844 71.53125 56.125 Z M 71.53125 56.125 " fill-opacity="1" fill-rule="nonzero"/><path fill="#ffffff" d="M 67.511719 56.828125 C 67.464844 57.054688 67.453125 57.261719 67.476562 57.28125 C 67.511719 57.316406 67.566406 57.15625 67.601562 56.917969 C 67.648438 56.691406 67.660156 56.488281 67.636719 56.464844 C 67.601562 56.429688 67.546875 56.589844 67.511719 56.828125 Z M 67.511719 56.828125 " fill-opacity="1" fill-rule="nonzero"/><path fill="#ffffff" d="M 103.484375 56.941406 C 103.03125 57.179688 102.757812 57.429688 102.566406 57.804688 C 102.472656 57.976562 102.179688 58.246094 101.894531 58.417969 C 101.609375 58.578125 101.28125 58.847656 101.144531 59.007812 L 100.917969 59.316406 L 101.394531 59.507812 C 102.203125 59.859375 102.371094 59.859375 103.210938 59.585938 C 103.769531 59.40625 104.0625 59.246094 104.132812 59.078125 C 104.265625 58.78125 104.097656 58.394531 103.769531 58.292969 C 103.550781 58.226562 103.550781 58.203125 103.722656 57.882812 C 103.8125 57.691406 103.882812 57.363281 103.859375 57.148438 L 103.824219 56.761719 Z M 103.4375 57.75 C 103.382812 58.078125 103.3125 58.191406 103.109375 58.214844 C 102.792969 58.257812 102.792969 58.089844 103.097656 57.65625 C 103.417969 57.214844 103.519531 57.25 103.4375 57.75 Z M 103.621094 58.601562 C 104.121094 59.167969 104.0625 59.222656 102.949219 59.316406 C 102.394531 59.347656 101.90625 59.359375 101.871094 59.328125 C 101.839844 59.304688 101.984375 59.203125 102.191406 59.109375 C 102.40625 59.019531 102.699219 58.816406 102.847656 58.644531 C 103.1875 58.28125 103.324219 58.269531 103.621094 58.601562 Z M 103.621094 58.601562 " fill-opacity="1" fill-rule="nonzero"/><path fill="#ffffff" d="M 81.210938 57.929688 C 80.214844 59.441406 81.210938 60.972656 83.109375 60.824219 L 83.617188 60.777344 L 83.164062 60.6875 C 82.324219 60.507812 81.644531 60.15625 81.40625 59.769531 C 81.121094 59.304688 81.121094 58.847656 81.394531 58.121094 C 81.644531 57.476562 81.574219 57.394531 81.210938 57.929688 Z M 81.210938 57.929688 " fill-opacity="1" fill-rule="nonzero"/><path fill="#ffffff" d="M 83.902344 58.792969 C 83.902344 58.839844 84.027344 59.054688 84.1875 59.269531 C 84.34375 59.484375 84.582031 59.882812 84.71875 60.167969 C 84.945312 60.609375 84.980469 60.644531 85.015625 60.40625 C 85.082031 59.972656 84.945312 59.621094 84.515625 59.144531 C 84.117188 58.714844 83.902344 58.578125 83.902344 58.792969 Z M 83.902344 58.792969 " fill-opacity="1" fill-rule="nonzero"/><path fill="#ffffff" d="M 82.835938 59.097656 C 82.734375 59.382812 82.746094 59.449219 83.0625 59.8125 C 83.222656 60.007812 83.472656 60.167969 83.609375 60.167969 C 83.742188 60.167969 83.972656 60.246094 84.105469 60.347656 C 84.335938 60.507812 84.355469 60.507812 84.355469 60.300781 C 84.355469 60.144531 84.175781 59.996094 83.734375 59.78125 C 83.222656 59.542969 83.109375 59.441406 83.109375 59.203125 C 83.109375 58.882812 82.9375 58.816406 82.835938 59.097656 Z M 82.835938 59.097656 " fill-opacity="1" fill-rule="nonzero"/><path fill="#ffffff" d="M 68.464844 59.328125 C 68.464844 59.371094 68.566406 59.566406 68.691406 59.769531 C 68.976562 60.222656 69.476562 60.472656 70.316406 60.574219 C 70.996094 60.65625 72.019531 60.550781 71.9375 60.40625 C 71.902344 60.347656 71.449219 60.28125 70.9375 60.234375 C 69.679688 60.132812 69.269531 60.007812 68.839844 59.597656 C 68.636719 59.40625 68.464844 59.28125 68.464844 59.328125 Z M 68.464844 59.328125 " fill-opacity="1" fill-rule="nonzero"/><path fill="#ffffff" d="M 66.125 59.65625 C 65.253906 59.847656 64.605469 60.175781 63.992188 60.734375 C 63.015625 61.628906 62.425781 63.289062 62.527344 64.832031 C 62.585938 65.683594 62.585938 65.707031 62.199219 66.136719 C 61.574219 66.839844 60.3125 68.679688 60.460938 68.679688 C 60.484375 68.679688 60.894531 68.203125 61.371094 67.613281 L 62.234375 66.546875 L 62.574219 66.714844 C 62.800781 66.828125 63.050781 66.863281 63.3125 66.816406 C 63.539062 66.773438 63.695312 66.785156 63.695312 66.851562 C 63.695312 66.910156 63.890625 67.203125 64.117188 67.511719 C 64.457031 67.953125 64.527344 68.136719 64.503906 68.5 C 64.480469 68.929688 64.492188 68.941406 64.820312 68.871094 C 65.136719 68.804688 65.242188 68.882812 66.238281 69.960938 C 67.203125 71.007812 68.476562 71.996094 68.644531 71.835938 C 68.679688 71.800781 68.429688 71.496094 68.101562 71.15625 C 67.625 70.679688 67.386719 70.292969 66.964844 69.292969 C 66.660156 68.613281 66.421875 67.976562 66.421875 67.90625 C 66.421875 67.828125 66.558594 67.511719 66.714844 67.191406 C 66.964844 66.683594 66.976562 66.625 66.796875 66.660156 C 66.695312 66.683594 66.476562 66.875 66.34375 67.089844 C 66.058594 67.523438 65.183594 68.453125 65.058594 68.453125 C 64.96875 68.453125 64.820312 66.238281 64.898438 66.035156 C 65.046875 65.660156 66.488281 64.933594 66.761719 65.105469 C 66.820312 65.136719 66.875 65.296875 66.875 65.445312 C 66.875 65.59375 66.933594 65.75 66.988281 65.785156 C 67.058594 65.832031 67.101562 65.695312 67.101562 65.457031 C 67.101562 64.945312 67.328125 64.820312 68.28125 64.820312 C 69.269531 64.820312 69.464844 65.003906 70.109375 66.570312 C 70.394531 67.25 70.621094 67.828125 70.621094 67.851562 C 70.621094 67.875 70.40625 67.886719 70.144531 67.898438 C 69.769531 67.898438 69.714844 67.917969 69.882812 68 C 70.234375 68.144531 70.691406 68.125 70.835938 67.953125 C 70.9375 67.828125 70.859375 67.511719 70.507812 66.511719 C 70.007812 65.117188 69.78125 64.785156 69.167969 64.582031 C 68.714844 64.433594 67.625 64.515625 67.375 64.71875 C 67.285156 64.785156 67.066406 64.820312 66.875 64.785156 C 66.464844 64.695312 65.625 64.945312 65.117188 65.285156 C 64.527344 65.695312 64.34375 66.089844 64.433594 66.785156 L 64.515625 67.375 L 64.195312 67.089844 C 64.015625 66.933594 63.84375 66.796875 63.808594 66.773438 C 63.777344 66.75 63.855469 66.660156 63.980469 66.558594 C 64.195312 66.398438 64.183594 66.398438 63.808594 66.476562 C 63.355469 66.578125 62.925781 66.578125 62.824219 66.476562 C 62.652344 66.308594 63.957031 64.523438 64.640625 63.980469 C 65.035156 63.664062 65.148438 63.628906 65.910156 63.628906 C 66.589844 63.628906 66.695312 63.605469 66.535156 63.492188 C 66.320312 63.34375 65.933594 63.289062 65.332031 63.320312 C 64.84375 63.355469 64.027344 63.933594 63.515625 64.59375 C 63.027344 65.242188 62.902344 65.183594 62.902344 64.308594 C 62.902344 63.515625 63.253906 62.335938 63.683594 61.652344 C 64.320312 60.664062 65.058594 60.144531 66.34375 59.769531 C 66.695312 59.667969 66.988281 59.566406 66.988281 59.53125 C 66.988281 59.472656 66.945312 59.472656 66.125 59.65625 Z M 66.195312 67.976562 C 66.195312 68.089844 66.226562 68.226562 66.273438 68.269531 C 66.351562 68.351562 66.761719 69.566406 66.761719 69.734375 C 66.761719 69.792969 66.570312 69.679688 66.34375 69.496094 C 66.101562 69.316406 65.738281 69.078125 65.535156 68.976562 L 65.171875 68.78125 L 65.59375 68.28125 C 66.046875 67.726562 66.195312 67.660156 66.195312 67.976562 Z M 66.195312 67.976562 " fill-opacity="1" fill-rule="nonzero"/><path fill="#ffffff" d="M 56.796875 60.109375 C 56.796875 60.292969 56.816406 60.359375 56.851562 60.246094 C 56.875 60.144531 56.875 59.984375 56.851562 59.90625 C 56.816406 59.835938 56.796875 59.917969 56.796875 60.109375 Z M 56.796875 60.109375 " fill-opacity="1" fill-rule="nonzero"/><path fill="#ffffff" d="M 103.550781 60.324219 C 103.167969 60.9375 103.234375 61.324219 103.960938 62.460938 C 104.484375 63.277344 104.609375 63.582031 104.652344 64.070312 C 104.699219 64.605469 104.664062 64.707031 104.3125 65.160156 C 103.8125 65.820312 103.175781 66.183594 102.507812 66.183594 C 101.371094 66.183594 98.851562 66.761719 98.207031 67.160156 L 97.921875 67.328125 L 98.207031 67.261719 C 98.363281 67.226562 98.851562 67.101562 99.285156 66.988281 C 100.148438 66.75 101.828125 66.523438 102.621094 66.523438 C 103.335938 66.523438 104.050781 66.136719 104.574219 65.480469 C 104.972656 64.980469 105.015625 64.84375 105.015625 64.296875 C 105.015625 63.59375 104.746094 62.980469 104.007812 61.992188 C 103.496094 61.3125 103.417969 60.847656 103.710938 60.28125 C 103.949219 59.8125 103.835938 59.847656 103.550781 60.324219 Z M 103.550781 60.324219 " fill-opacity="1" fill-rule="nonzero"/><path fill="#ffffff" d="M 56.910156 60.847656 C 56.910156 61.0625 56.929688 61.152344 56.964844 61.039062 C 56.988281 60.9375 56.988281 60.757812 56.964844 60.644531 C 56.929688 60.539062 56.910156 60.632812 56.910156 60.847656 Z M 56.910156 60.847656 " fill-opacity="1" fill-rule="nonzero"/><path fill="#ffffff" d="M 68.804688 60.597656 C 68.804688 60.664062 69.101562 60.859375 69.464844 61.039062 C 70.007812 61.3125 70.246094 61.359375 71.019531 61.359375 C 71.519531 61.347656 72.109375 61.335938 72.347656 61.300781 C 73.105469 61.234375 74.730469 62.46875 75.230469 63.515625 C 75.71875 64.546875 75.515625 66.089844 74.730469 67.226562 C 74.355469 67.773438 72.742188 69.359375 72.039062 69.871094 C 71.789062 70.054688 71.371094 70.40625 71.109375 70.65625 C 70.710938 71.019531 70.644531 71.15625 70.691406 71.394531 C 70.804688 71.871094 71.144531 72.085938 71.777344 72.085938 C 72.277344 72.085938 72.335938 72.109375 72.265625 72.277344 C 72.222656 72.390625 72.109375 72.699219 72.007812 72.960938 L 71.847656 73.449219 L 71.53125 73.21875 C 71.359375 73.09375 71.085938 72.949219 70.917969 72.878906 C 70.757812 72.824219 70.472656 72.539062 70.304688 72.265625 L 69.972656 71.757812 L 69.847656 72.3125 C 69.714844 72.902344 69.792969 73.378906 70.109375 73.867188 C 70.460938 74.390625 70.203125 74.253906 69.722656 73.664062 C 69.417969 73.277344 69.257812 72.960938 69.246094 72.722656 C 69.246094 72.527344 69.203125 72.265625 69.144531 72.140625 C 69.054688 71.902344 69.042969 71.902344 68.863281 72.484375 C 68.816406 72.640625 68.75 72.628906 68.363281 72.425781 C 66.964844 71.722656 66.34375 72.742188 67.535156 73.789062 C 67.816406 74.050781 68.351562 74.414062 68.726562 74.605469 C 69.101562 74.808594 69.722656 75.285156 70.121094 75.671875 C 70.90625 76.433594 71.03125 76.457031 70.53125 75.761719 C 70.109375 75.183594 69.519531 74.671875 68.578125 74.070312 C 67.398438 73.3125 66.945312 72.550781 67.726562 72.628906 C 68.25 72.6875 68.667969 72.972656 68.976562 73.449219 C 69.132812 73.699219 69.339844 73.902344 69.429688 73.902344 C 69.578125 73.902344 69.996094 74.390625 70.632812 75.285156 C 70.8125 75.523438 70.8125 75.480469 70.757812 74.433594 C 70.710938 73.46875 70.722656 73.335938 70.894531 73.335938 C 71.03125 73.335938 71.074219 73.449219 71.074219 73.777344 C 71.074219 74.105469 71.144531 74.277344 71.300781 74.390625 C 71.507812 74.527344 71.539062 74.695312 71.5625 75.457031 C 71.597656 76.410156 71.777344 76.851562 72.371094 77.410156 C 72.742188 77.761719 72.742188 77.828125 72.324219 78.046875 C 71.882812 78.273438 71.734375 78.179688 71.824219 77.714844 C 71.894531 77.308594 71.664062 76.964844 71.3125 76.964844 C 71.210938 76.964844 70.746094 76.738281 70.28125 76.457031 C 68.78125 75.558594 68.351562 75.605469 68.078125 76.683594 C 67.839844 77.648438 67.863281 78.113281 68.113281 77.308594 C 68.542969 75.957031 68.679688 75.910156 70.019531 76.738281 C 70.53125 77.046875 71.050781 77.308594 71.175781 77.308594 C 71.472656 77.308594 71.609375 77.589844 71.425781 77.804688 C 71.335938 77.921875 70.929688 77.976562 70.019531 78.011719 C 69.316406 78.035156 68.644531 78.113281 68.519531 78.179688 C 68.328125 78.292969 68.386719 78.304688 68.863281 78.261719 C 69.179688 78.238281 69.941406 78.25 70.566406 78.292969 C 71.484375 78.375 71.6875 78.417969 71.664062 78.554688 C 71.484375 79.292969 71.507812 79.453125 71.789062 79.738281 C 71.960938 79.894531 72.210938 80.03125 72.371094 80.03125 L 72.652344 80.03125 L 72.359375 80.679688 C 71.871094 81.746094 71.894531 83.0625 72.390625 83.253906 C 72.539062 83.3125 72.527344 83.277344 72.378906 83.074219 C 72.152344 82.734375 72.164062 82.359375 72.449219 81.460938 C 72.609375 80.90625 72.8125 80.566406 73.164062 80.203125 C 73.628906 79.714844 73.675781 79.691406 74.320312 79.679688 C 74.980469 79.667969 74.992188 79.667969 74.652344 79.519531 C 74.164062 79.292969 73.914062 79.316406 73.300781 79.621094 C 72.859375 79.851562 72.699219 79.871094 72.371094 79.792969 C 71.585938 79.566406 71.769531 78.828125 72.742188 78.273438 L 73.289062 77.964844 L 74.082031 78.238281 C 74.84375 78.511719 74.878906 78.542969 74.914062 78.90625 C 74.96875 79.453125 75.160156 79.613281 75.160156 79.113281 C 75.160156 77.875 76.898438 78.148438 77.214844 79.417969 C 77.363281 79.976562 77.546875 80.191406 77.546875 79.78125 C 77.546875 79.238281 77.285156 78.613281 76.921875 78.273438 L 76.546875 77.929688 L 76.761719 76.910156 C 76.875 76.34375 76.976562 75.71875 76.976562 75.511719 C 76.976562 75.09375 76.96875 75.09375 77.773438 75.378906 C 78.929688 75.785156 80.066406 75.59375 80.226562 74.980469 C 80.339844 74.503906 80.167969 74.128906 79.53125 73.449219 C 79.191406 73.09375 78.941406 72.765625 78.988281 72.730469 C 79.023438 72.6875 79.191406 72.652344 79.351562 72.652344 C 79.792969 72.640625 80.566406 72.253906 80.792969 71.914062 C 81.066406 71.496094 80.894531 71.1875 80.019531 70.542969 C 79.15625 69.90625 78.285156 69.472656 77.851562 69.472656 C 77.171875 69.472656 76.058594 70.347656 75.886719 71.03125 C 75.84375 71.175781 75.785156 71.289062 75.742188 71.289062 C 75.695312 71.289062 75.398438 71.019531 75.070312 70.6875 C 74.640625 70.257812 74.457031 69.960938 74.402344 69.667969 C 74.289062 68.964844 74.414062 68.917969 75.992188 68.964844 C 76.863281 68.988281 77.296875 68.964844 77.183594 68.894531 C 77.082031 68.839844 76.773438 68.792969 76.5 68.804688 C 76.230469 68.816406 75.695312 68.78125 75.308594 68.738281 C 74.503906 68.632812 74.320312 68.726562 74.0625 69.328125 C 73.925781 69.679688 73.878906 69.703125 73.335938 69.703125 L 72.765625 69.703125 L 73.949219 68.53125 C 75.207031 67.304688 75.515625 66.839844 75.796875 65.707031 C 76.261719 63.921875 75.433594 62.355469 73.480469 61.300781 C 72.722656 60.894531 72.609375 60.882812 71.632812 61.0625 C 70.757812 61.234375 69.804688 61.097656 69.179688 60.710938 C 68.976562 60.585938 68.804688 60.539062 68.804688 60.597656 Z M 74.152344 70.066406 C 74.230469 70.210938 74.480469 70.5625 74.71875 70.847656 L 75.160156 71.371094 L 74.445312 71.425781 C 74.050781 71.460938 73.492188 71.597656 73.199219 71.722656 C 72.722656 71.9375 72.585938 71.949219 71.984375 71.835938 C 71.132812 71.6875 70.949219 71.507812 71.269531 71.085938 C 71.699219 70.496094 72.867188 69.953125 73.9375 69.828125 C 73.980469 69.816406 74.082031 69.929688 74.152344 70.066406 Z M 78.78125 70.132812 C 79.40625 70.53125 80.441406 71.3125 80.519531 71.449219 C 80.621094 71.632812 80.496094 71.789062 80.078125 72.007812 C 79.519531 72.300781 78.613281 72.359375 77.523438 72.164062 C 75.992188 71.890625 75.878906 71.777344 76.296875 70.949219 C 76.808594 69.960938 77.921875 69.589844 78.78125 70.132812 Z M 75.421875 71.765625 C 75.59375 71.902344 75.59375 71.984375 75.355469 72.878906 C 75.207031 73.414062 75.003906 73.992188 74.890625 74.183594 L 74.683594 74.527344 L 74.96875 74.195312 C 75.332031 73.777344 75.628906 73.84375 76.285156 74.515625 L 76.785156 75.027344 L 76.636719 75.511719 C 76.558594 75.785156 76.46875 76.421875 76.433594 76.933594 C 76.386719 77.726562 76.34375 77.875 76.183594 77.875 C 76.070312 77.875 75.832031 77.910156 75.648438 77.941406 C 75.320312 78.011719 75.296875 77.988281 75.21875 77.566406 C 75.140625 77.113281 74.402344 75.46875 74.105469 75.09375 C 73.789062 74.683594 74.09375 75.742188 74.652344 76.964844 C 74.945312 77.589844 75.140625 78.160156 75.09375 78.261719 C 75.058594 78.363281 75.015625 78.441406 74.992188 78.441406 C 74.980469 78.441406 74.664062 78.261719 74.300781 78.046875 C 73.867188 77.785156 73.503906 77.648438 73.230469 77.648438 C 72.847656 77.648438 72.800781 77.613281 72.359375 76.820312 C 71.710938 75.683594 71.664062 75.492188 72.027344 75.492188 C 72.175781 75.492188 72.449219 75.367188 72.628906 75.230469 C 72.800781 75.082031 73.050781 74.902344 73.175781 74.832031 C 73.402344 74.707031 73.402344 74.707031 73.164062 74.695312 C 73.027344 74.695312 72.789062 74.796875 72.628906 74.921875 C 72.234375 75.242188 71.871094 75.21875 71.871094 74.890625 C 71.871094 74.753906 71.9375 74.527344 72.027344 74.402344 C 72.121094 74.277344 72.222656 73.925781 72.265625 73.617188 C 72.414062 72.492188 72.621094 72.253906 73.730469 71.859375 C 74.414062 71.609375 75.160156 71.574219 75.421875 71.765625 Z M 77.089844 72.492188 C 77.433594 72.574219 77.933594 72.652344 78.191406 72.652344 C 78.566406 72.652344 78.703125 72.710938 78.804688 72.902344 C 78.886719 73.039062 79.15625 73.4375 79.429688 73.777344 C 80.03125 74.546875 80.066406 74.84375 79.566406 75.105469 C 79.25 75.265625 79.101562 75.273438 78.464844 75.160156 C 78.066406 75.082031 77.578125 74.933594 77.386719 74.832031 C 77.195312 74.730469 77 74.652344 76.957031 74.640625 C 76.910156 74.640625 76.613281 74.445312 76.308594 74.195312 C 75.796875 73.8125 75.730469 73.71875 75.730469 73.335938 C 75.730469 73.105469 75.785156 72.742188 75.855469 72.550781 C 75.96875 72.246094 76.023438 72.199219 76.230469 72.253906 C 76.355469 72.300781 76.75 72.402344 77.089844 72.492188 Z M 70.472656 73.175781 C 70.507812 73.265625 70.484375 73.402344 70.40625 73.480469 C 70.316406 73.574219 70.28125 73.574219 70.28125 73.480469 C 70.28125 73.414062 70.246094 73.277344 70.210938 73.175781 C 70.179688 73.074219 70.203125 72.992188 70.269531 72.992188 C 70.347656 72.992188 70.429688 73.074219 70.472656 73.175781 Z M 71.859375 73.742188 C 71.882812 73.765625 71.847656 73.925781 71.769531 74.09375 L 71.621094 74.414062 L 71.460938 74.027344 C 71.371094 73.820312 71.300781 73.628906 71.300781 73.59375 C 71.300781 73.550781 71.777344 73.675781 71.859375 73.742188 Z M 71.859375 73.742188 " fill-opacity="1" fill-rule="nonzero"/><path fill="#ffffff" d="M 66.613281 61.527344 C 66.261719 61.8125 66.082031 62.105469 65.957031 62.628906 C 65.84375 63.164062 65.988281 63.09375 66.285156 62.492188 C 66.625 61.777344 67.136719 61.539062 67.875 61.734375 C 68.167969 61.8125 68.601562 61.984375 68.839844 62.105469 C 69.417969 62.402344 69.339844 62.152344 68.714844 61.710938 C 68.066406 61.246094 67.078125 61.164062 66.613281 61.527344 Z M 66.613281 61.527344 " fill-opacity="1" fill-rule="nonzero"/><path fill="#ffffff" d="M 68.976562 63.050781 C 68.667969 63.195312 68.226562 63.515625 68.011719 63.753906 C 67.714844 64.070312 67.679688 64.128906 67.898438 63.992188 C 68.054688 63.878906 68.511719 63.628906 68.90625 63.433594 C 69.519531 63.140625 69.691406 63.09375 70.03125 63.1875 C 70.417969 63.277344 70.496094 63.390625 71.042969 64.421875 C 71.371094 65.046875 71.644531 65.707031 71.644531 65.886719 C 71.644531 66.183594 71.621094 66.207031 71.335938 66.125 C 71.109375 66.082031 71.050781 66.089844 71.132812 66.171875 C 71.199219 66.238281 71.382812 66.308594 71.53125 66.320312 C 71.800781 66.351562 71.8125 66.332031 71.800781 65.726562 C 71.800781 65.242188 71.699219 64.898438 71.324219 64.117188 C 70.65625 62.730469 70.144531 62.492188 68.976562 63.050781 Z M 68.976562 63.050781 " fill-opacity="1" fill-rule="nonzero"/><path fill="#ffffff" d="M 67.792969 66.75 C 68.011719 66.863281 68.464844 67.203125 68.78125 67.488281 C 69.40625 68.054688 69.566406 67.964844 69.089844 67.304688 C 68.738281 66.839844 68.191406 66.523438 67.726562 66.523438 L 67.386719 66.535156 Z M 67.792969 66.75 " fill-opacity="1" fill-rule="nonzero"/><path fill="#ffffff" d="M 88.785156 66.921875 C 88.785156 67.054688 90.429688 67.90625 91.222656 68.179688 C 92.019531 68.453125 92.3125 68.5 93.496094 68.5 C 94.402344 68.5 95.074219 68.441406 95.515625 68.316406 C 95.867188 68.214844 96.164062 68.15625 96.164062 68.179688 C 96.164062 68.203125 95.992188 68.453125 95.800781 68.726562 C 95.324219 69.371094 94.074219 71.621094 94.152344 71.699219 C 94.253906 71.800781 95.199219 70.472656 95.664062 69.589844 C 95.902344 69.121094 96.277344 68.519531 96.480469 68.25 C 96.765625 67.875 96.808594 67.773438 96.652344 67.804688 C 96.277344 67.917969 95.207031 68.101562 94.515625 68.167969 C 93.164062 68.304688 90.816406 67.828125 89.441406 67.136719 C 88.898438 66.863281 88.785156 66.816406 88.785156 66.921875 Z M 88.785156 66.921875 " fill-opacity="1" fill-rule="nonzero"/><path fill="#ffffff" d="M 97.308594 67.964844 C 97.332031 68.03125 98.136719 68.757812 99.089844 69.589844 C 100.042969 70.417969 100.953125 71.269531 101.101562 71.507812 C 101.644531 72.335938 101.679688 73.355469 101.179688 74.300781 C 100.882812 74.867188 99.183594 76.886719 98.332031 77.671875 C 95.367188 80.394531 92.667969 81.496094 89.238281 81.359375 C 86.671875 81.257812 84.34375 80.542969 80.835938 78.78125 C 79.746094 78.226562 78.839844 77.796875 78.816406 77.804688 C 78.75 77.886719 79.871094 78.542969 81.574219 79.417969 C 85.34375 81.359375 88.578125 82.109375 91.359375 81.6875 C 94.117188 81.269531 96.289062 80.097656 98.613281 77.796875 C 99.554688 76.863281 100.828125 75.265625 101.28125 74.433594 L 101.609375 73.84375 L 101.609375 74.527344 C 101.609375 75.796875 101.179688 78.203125 100.65625 79.828125 C 100.386719 80.691406 100.203125 81.359375 100.25 81.335938 C 100.441406 81.210938 101.304688 79.042969 101.542969 78.066406 L 101.804688 77.023438 L 101.929688 77.589844 C 101.996094 77.898438 102.144531 78.78125 102.246094 79.542969 C 102.347656 80.304688 102.484375 80.90625 102.53125 80.871094 C 102.804688 80.710938 102.519531 77.988281 102.132812 76.875 C 102.019531 76.570312 101.941406 75.785156 101.90625 74.671875 C 101.882812 73.71875 101.792969 72.753906 101.726562 72.539062 C 101.417969 71.632812 101.007812 70.90625 100.5 70.359375 C 99.691406 69.484375 97.171875 67.601562 97.308594 67.964844 Z M 97.308594 67.964844 " fill-opacity="1" fill-rule="nonzero"/><path fill="#ffffff" d="M 69.203125 68.382812 C 69.144531 68.507812 69.101562 68.953125 69.101562 69.359375 C 69.089844 70.042969 69.121094 70.167969 69.484375 70.6875 C 69.78125 71.132812 69.894531 71.222656 69.917969 71.0625 C 69.941406 70.949219 69.859375 70.679688 69.757812 70.472656 C 69.644531 70.269531 69.496094 69.667969 69.429688 69.132812 C 69.328125 68.429688 69.269531 68.226562 69.203125 68.382812 Z M 69.203125 68.382812 " fill-opacity="1" fill-rule="nonzero"/><path fill="#ffffff" d="M 58.269531 71.609375 C 57.769531 72.335938 57.042969 73.367188 56.671875 73.902344 C 55.148438 76.070312 54.511719 77.035156 54.433594 77.328125 C 54.332031 77.773438 54.46875 78.191406 54.808594 78.511719 L 55.105469 78.78125 L 54.660156 79.316406 C 53.96875 80.191406 51.515625 82.5625 50.234375 83.617188 C 49.269531 84.414062 49.074219 84.628906 49.179688 84.753906 C 49.246094 84.84375 49.4375 84.902344 49.609375 84.902344 C 49.871094 84.878906 49.882812 84.878906 49.65625 84.832031 C 49.507812 84.808594 49.394531 84.71875 49.40625 84.652344 C 49.40625 84.570312 49.90625 84.152344 50.507812 83.722656 C 51.152344 83.253906 52.4375 82.097656 53.640625 80.90625 L 55.671875 78.886719 L 56.023438 79.019531 C 56.214844 79.101562 57.113281 79.507812 58.019531 79.929688 C 61.019531 81.324219 61.6875 81.484375 59.609375 80.316406 C 58.488281 79.679688 56.898438 78.988281 56.183594 78.839844 C 55.976562 78.792969 55.59375 78.578125 55.332031 78.363281 C 54.617188 77.785156 54.648438 77.535156 55.707031 75.96875 C 56.171875 75.253906 56.578125 74.695312 56.601562 74.71875 C 56.625 74.742188 56.726562 75.523438 56.828125 76.457031 C 57.042969 78.542969 57.089844 78.78125 57.273438 78.78125 C 57.566406 78.78125 58.667969 77.476562 58.882812 76.898438 L 59.078125 76.332031 L 59.996094 76.773438 C 60.8125 77.171875 62.109375 78.089844 62.199219 78.328125 C 62.222656 78.375 62.050781 78.53125 61.824219 78.667969 C 61.609375 78.804688 61.425781 78.988281 61.425781 79.066406 C 61.425781 79.328125 61.984375 79.894531 62.367188 80.019531 C 62.8125 80.15625 63.855469 80.203125 64.320312 80.097656 C 64.628906 80.03125 64.683594 80.066406 64.878906 80.394531 C 65.082031 80.757812 65.421875 81.972656 65.34375 82.050781 C 65.296875 82.097656 65.160156 81.949219 64.433594 81.007812 C 63.855469 80.246094 63.777344 80.292969 64.230469 81.109375 L 64.535156 81.65625 L 64.253906 81.574219 C 63.1875 81.269531 61.484375 81.03125 61.675781 81.222656 C 61.699219 81.257812 62.210938 81.40625 62.800781 81.550781 C 64.039062 81.871094 64.890625 82.234375 64.992188 82.472656 C 65.023438 82.5625 65.171875 82.640625 65.332031 82.640625 C 65.535156 82.640625 65.617188 82.722656 65.660156 82.949219 C 65.695312 83.128906 65.707031 83.289062 65.683594 83.300781 C 65.582031 83.402344 63.5625 82.800781 62.902344 82.484375 C 62.492188 82.277344 61.984375 82.039062 61.765625 81.960938 C 61.550781 81.882812 61.277344 81.734375 61.152344 81.632812 C 60.960938 81.460938 60.949219 81.460938 60.984375 81.675781 C 61.019531 81.835938 61.425781 82.121094 62.242188 82.5625 C 63.324219 83.152344 63.570312 83.242188 64.546875 83.378906 C 65.148438 83.460938 65.660156 83.550781 65.671875 83.574219 C 65.683594 83.585938 65.785156 83.742188 65.886719 83.914062 C 66.148438 84.332031 66.445312 84.3125 66.988281 83.824219 C 67.429688 83.425781 68.125 82.222656 68.125 81.847656 C 68.125 81.734375 68.28125 81.371094 68.464844 81.019531 C 68.882812 80.234375 68.882812 80.019531 68.511719 79.613281 C 68.261719 79.328125 68.238281 79.328125 68.394531 79.578125 C 68.65625 79.976562 68.625 80.15625 68.191406 80.960938 C 67.988281 81.359375 67.714844 81.914062 67.613281 82.222656 C 67.398438 82.800781 66.613281 83.777344 66.363281 83.777344 C 66.273438 83.777344 66.171875 83.605469 66.136719 83.347656 C 66.09375 83.117188 65.933594 82.527344 65.773438 82.050781 C 65.117188 79.984375 65.375 78.917969 66.703125 78.316406 C 67.023438 78.167969 67.089844 78.101562 66.921875 78.101562 C 66.773438 78.101562 66.570312 77.953125 66.421875 77.726562 C 66.101562 77.261719 65.570312 76.875 65.011719 76.726562 C 64.785156 76.671875 64.605469 76.582031 64.605469 76.535156 C 64.605469 76.261719 65.09375 75.730469 65.457031 75.605469 C 65.671875 75.535156 66.113281 75.296875 66.433594 75.082031 C 67.238281 74.546875 67.5 74.570312 67.953125 75.253906 C 68.214844 75.617188 68.238281 75.628906 68.238281 75.390625 C 68.238281 75.003906 67.546875 74.355469 67.136719 74.355469 C 66.945312 74.355469 66.488281 74.558594 66.023438 74.855469 C 64.796875 75.636719 64.617188 75.808594 64.535156 76.238281 C 64.480469 76.558594 64.378906 76.671875 64.058594 76.808594 C 63.832031 76.898438 63.5625 77.058594 63.445312 77.160156 C 63.253906 77.328125 63.242188 77.320312 63.242188 76.898438 C 63.230469 76.511719 63.128906 76.113281 62.855469 75.480469 C 62.789062 75.332031 62.867188 75.308594 63.324219 75.308594 L 63.867188 75.320312 L 63.902344 74.902344 C 63.933594 74.457031 63.777344 74.082031 63.289062 73.46875 L 62.980469 73.105469 L 63.3125 73.09375 C 63.492188 73.09375 63.820312 73.015625 64.039062 72.9375 L 64.433594 72.789062 L 63.890625 72.777344 C 63.503906 72.765625 63.21875 72.675781 62.890625 72.460938 C 62.300781 72.074219 61.300781 71.972656 60.769531 72.246094 C 60.5625 72.347656 60.40625 72.449219 60.40625 72.460938 C 60.40625 72.472656 60.746094 72.472656 61.175781 72.449219 C 62.265625 72.402344 62.617188 72.609375 63.152344 73.617188 C 63.5625 74.390625 63.707031 75.035156 63.46875 75.035156 C 63.402344 75.035156 62.949219 74.910156 62.472656 74.753906 C 61.585938 74.46875 60.074219 74.183594 59.984375 74.289062 C 59.949219 74.320312 60.371094 74.480469 60.914062 74.640625 C 61.460938 74.808594 62.003906 75.046875 62.128906 75.171875 C 62.449219 75.492188 62.890625 76.488281 62.96875 77.089844 C 63.027344 77.535156 63.003906 77.625 62.710938 77.898438 L 62.378906 78.214844 L 61.675781 77.488281 C 61.199219 76.988281 60.800781 76.695312 60.4375 76.558594 C 59.078125 76.058594 59.214844 76.21875 59.179688 75.105469 C 59.167969 74.164062 59.179688 74.117188 59.382812 74.183594 C 59.554688 74.242188 59.609375 74.207031 59.609375 74.027344 C 59.609375 73.640625 59.859375 73.230469 60.109375 73.199219 C 60.234375 73.175781 60.359375 73.074219 60.382812 72.972656 C 60.425781 72.722656 59.90625 72.492188 59.496094 72.597656 L 59.214844 72.675781 L 59.609375 72.878906 L 60.007812 73.085938 L 59.699219 73.210938 C 59.28125 73.367188 59.109375 73.84375 58.953125 75.160156 C 58.871094 75.933594 58.746094 76.421875 58.542969 76.808594 C 58.191406 77.476562 57.613281 78.191406 57.511719 78.078125 C 57.363281 77.941406 56.964844 74.414062 57.042969 74.070312 C 57.160156 73.628906 57.792969 73.050781 58.328125 72.890625 L 58.757812 72.765625 L 58.28125 72.8125 C 58.007812 72.835938 57.792969 72.835938 57.792969 72.8125 C 57.792969 72.765625 58.816406 71.175781 58.851562 71.175781 C 58.859375 71.175781 58.871094 71.402344 58.871094 71.6875 C 58.871094 72.007812 58.941406 72.253906 59.066406 72.378906 C 59.234375 72.5625 59.246094 72.539062 59.191406 72.109375 C 59.089844 71.335938 59.699219 70.734375 60.417969 70.917969 C 60.585938 70.960938 60.621094 71.042969 60.5625 71.222656 C 60.417969 71.652344 60.3125 72.222656 60.371094 72.152344 C 60.417969 72.121094 60.574219 71.824219 60.734375 71.496094 C 60.984375 70.996094 61.121094 70.871094 61.496094 70.734375 C 61.925781 70.585938 61.996094 70.585938 62.597656 70.871094 C 62.949219 71.03125 63.527344 71.425781 63.867188 71.757812 C 64.207031 72.085938 64.492188 72.289062 64.492188 72.234375 C 64.492188 72.027344 63.855469 71.246094 63.4375 70.917969 C 62.503906 70.210938 61.722656 70.085938 61.027344 70.5625 C 60.722656 70.769531 60.5625 70.8125 60.484375 70.734375 C 60.28125 70.53125 59.554688 70.585938 59.222656 70.847656 C 58.894531 71.109375 58.839844 71.019531 59.109375 70.632812 C 59.214844 70.484375 59.269531 70.347656 59.246094 70.316406 C 59.214844 70.292969 58.78125 70.871094 58.269531 71.609375 Z M 65.207031 77.089844 C 65.617188 77.203125 66.535156 77.910156 66.535156 78.101562 C 66.535156 78.160156 66.445312 78.226562 66.320312 78.273438 C 65.96875 78.386719 65.332031 79.101562 65.195312 79.554688 L 65.070312 79.976562 L 63.902344 79.917969 C 62.074219 79.816406 61.550781 79.429688 62.367188 78.769531 C 62.628906 78.554688 63.074219 78.136719 63.355469 77.828125 C 63.808594 77.328125 64.34375 76.976562 64.660156 76.964844 C 64.730469 76.964844 64.96875 77.023438 65.207031 77.089844 Z M 65.207031 77.089844 " fill-opacity="1" fill-rule="nonzero"/><path fill="#ffffff" d="M 93.574219 72.800781 C 93.382812 73.199219 93.097656 73.902344 92.925781 74.367188 C 92.65625 75.140625 92.644531 75.183594 92.871094 74.980469 C 93.324219 74.570312 94.1875 72.335938 93.972656 72.121094 C 93.9375 72.097656 93.757812 72.390625 93.574219 72.800781 Z M 93.574219 72.800781 " fill-opacity="1" fill-rule="nonzero"/><path fill="#ffffff" d="M 94.347656 72.539062 C 94.492188 72.753906 94.949219 73.34375 95.355469 73.84375 C 96.695312 75.46875 96.921875 75.773438 97.171875 76.230469 C 97.296875 76.476562 97.410156 76.773438 97.410156 76.875 C 97.410156 76.988281 97.46875 77.078125 97.535156 77.078125 C 97.730469 77.078125 97.558594 76.34375 97.21875 75.671875 C 96.832031 74.910156 95.09375 72.902344 94.289062 72.3125 C 94.109375 72.164062 94.117188 72.199219 94.347656 72.539062 Z M 94.347656 72.539062 " fill-opacity="1" fill-rule="nonzero"/><path fill="#ffffff" d="M 108.933594 76.082031 L 108.480469 76.570312 L 108.96875 76.113281 C 109.410156 75.707031 109.5 75.605469 109.410156 75.605469 C 109.386719 75.605469 109.171875 75.820312 108.933594 76.082031 Z M 108.933594 76.082031 " fill-opacity="1" fill-rule="nonzero"/><path fill="#ffffff" d="M 70.394531 78.453125 C 70.394531 78.476562 70.574219 78.90625 70.792969 79.40625 C 71.371094 80.734375 71.371094 80.746094 70.347656 80.65625 C 69.816406 80.597656 69.429688 80.621094 69.304688 80.703125 C 69.101562 80.816406 69.113281 80.816406 69.351562 80.824219 C 69.816406 80.824219 70.054688 81.03125 70.054688 81.425781 C 70.042969 81.925781 69.757812 83.765625 69.679688 83.855469 C 69.632812 83.890625 69.304688 83.824219 68.941406 83.710938 L 68.273438 83.480469 L 69.734375 85.117188 C 70.53125 86.023438 71.53125 87.21875 71.9375 87.796875 C 72.753906 88.941406 74.390625 91.507812 74.332031 91.566406 C 74.320312 91.585938 74.0625 91.53125 73.765625 91.441406 C 73.390625 91.328125 73.128906 91.316406 72.867188 91.394531 C 72.664062 91.453125 72.335938 91.496094 72.140625 91.496094 C 71.550781 91.496094 70.554688 92.3125 70.203125 93.074219 C 70.121094 93.234375 70.066406 93.574219 70.066406 93.824219 L 70.078125 94.277344 L 70.246094 93.789062 C 70.460938 93.175781 71.449219 92.085938 72.039062 91.824219 C 72.699219 91.519531 73.140625 91.566406 74.082031 91.996094 C 74.675781 92.269531 74.902344 92.335938 74.855469 92.210938 C 74.820312 92.109375 74.457031 91.394531 74.050781 90.601562 C 72.621094 87.839844 72.019531 87 70.078125 85.003906 L 69.214844 84.128906 L 69.621094 84.1875 C 69.882812 84.230469 70.054688 84.207031 70.109375 84.117188 C 70.167969 84.039062 70.222656 83.300781 70.234375 82.484375 L 70.28125 80.996094 L 70.699219 81.042969 C 71.5625 81.132812 71.585938 81.121094 71.621094 80.804688 C 71.664062 80.453125 70.972656 78.929688 70.621094 78.613281 C 70.496094 78.5 70.394531 78.429688 70.394531 78.453125 Z M 70.394531 78.453125 " fill-opacity="1" fill-rule="nonzero"/><path fill="#ffffff" d="M 103.6875 80.144531 C 103.835938 80.429688 104.121094 80.941406 104.3125 81.28125 C 104.503906 81.621094 104.722656 82.121094 104.800781 82.382812 C 104.867188 82.640625 104.984375 82.835938 105.050781 82.789062 C 105.109375 82.757812 105.128906 82.824219 105.085938 82.949219 C 105.050781 83.074219 105.085938 83.390625 105.1875 83.652344 C 105.480469 84.515625 106.027344 87.433594 106.195312 89.203125 C 106.832031 95.34375 105.605469 101.621094 102.824219 106.652344 C 99.898438 111.917969 95.457031 115.402344 90.53125 116.289062 C 90.019531 116.378906 89.792969 116.457031 90.011719 116.457031 C 90.214844 116.46875 90.769531 116.390625 91.257812 116.289062 C 94.472656 115.628906 96.945312 114.222656 99.566406 111.601562 C 100.75 110.410156 101.328125 109.714844 102.089844 108.582031 C 106.09375 102.585938 107.59375 94.878906 106.195312 87.308594 C 105.902344 85.707031 105.574219 84.378906 105.289062 83.628906 C 105.085938 83.074219 105.085938 82.878906 105.300781 83.097656 C 105.539062 83.347656 110.316406 92.914062 111.703125 95.921875 C 112.871094 98.464844 114.097656 101.269531 114.484375 102.316406 C 114.597656 102.621094 114.710938 102.835938 114.746094 102.804688 C 114.800781 102.746094 114.539062 101.882812 114.210938 101.03125 C 114.097656 100.75 113.835938 100.089844 113.632812 99.554688 C 113.429688 99.023438 112.984375 97.957031 112.644531 97.171875 C 112.304688 96.390625 111.882812 95.390625 111.691406 94.957031 C 111.125 93.640625 108.285156 87.945312 107.171875 85.878906 C 105.992188 83.699219 104.007812 80.347656 103.644531 79.917969 C 103.4375 79.667969 103.4375 79.703125 103.6875 80.144531 Z M 103.6875 80.144531 " fill-opacity="1" fill-rule="nonzero"/><path fill="#ffffff" d="M 75.628906 79.917969 C 75.480469 79.953125 75.277344 80.109375 75.171875 80.257812 C 75.003906 80.542969 75.003906 80.542969 75.230469 80.339844 C 75.492188 80.121094 76.320312 80.078125 76.796875 80.257812 C 77.207031 80.40625 77.546875 81.019531 77.546875 81.585938 C 77.546875 82.144531 77.488281 82.164062 76.921875 81.835938 C 76.707031 81.699219 76.136719 81.449219 75.671875 81.28125 L 74.820312 80.960938 L 74.027344 81.847656 C 73.59375 82.335938 73.230469 82.765625 73.230469 82.824219 C 73.230469 82.871094 73.289062 82.859375 73.367188 82.777344 C 73.5625 82.585938 73.6875 82.609375 73.6875 82.859375 C 73.6875 82.972656 73.8125 83.253906 73.96875 83.492188 C 74.140625 83.722656 74.242188 83.9375 74.21875 83.960938 C 74.195312 83.980469 73.992188 83.949219 73.753906 83.878906 C 73.164062 83.722656 72.472656 83.980469 71.925781 84.59375 C 71.449219 85.117188 71.4375 85.105469 71.085938 84.175781 C 70.746094 83.253906 70.734375 83.234375 70.792969 83.835938 C 70.882812 84.695312 71.484375 85.785156 73.128906 88.035156 C 74.742188 90.246094 74.933594 90.519531 75.761719 91.894531 C 76.398438 92.949219 76.367188 92.644531 75.71875 91.328125 C 75.160156 90.226562 74.175781 88.726562 72.789062 86.898438 C 71.574219 85.296875 71.550781 85.171875 72.371094 84.605469 C 73.253906 84.003906 74.0625 84.128906 74.855469 85.015625 C 75.09375 85.289062 75.308594 85.480469 75.332031 85.457031 C 75.445312 85.332031 74.652344 83.6875 74.265625 83.265625 C 74.003906 82.984375 73.800781 82.664062 73.800781 82.550781 C 73.800781 82.324219 74.820312 81.394531 75.070312 81.394531 C 75.242188 81.394531 76.636719 82.039062 76.636719 82.121094 C 76.636719 82.152344 76.59375 82.300781 76.535156 82.449219 C 76.34375 82.9375 76.183594 84.402344 76.285156 84.753906 C 76.367188 85.039062 76.386719 85.050781 76.445312 84.855469 C 76.59375 84.378906 76.75 83.253906 76.75 82.734375 C 76.75 82.4375 76.785156 82.1875 76.84375 82.1875 C 76.886719 82.1875 77.125 82.347656 77.363281 82.527344 C 77.910156 82.9375 78 82.859375 78 81.949219 C 78 81.257812 77.578125 80.234375 77.226562 80.078125 C 76.933594 79.953125 75.910156 79.851562 75.628906 79.917969 Z M 75.628906 79.917969 " fill-opacity="1" fill-rule="nonzero"/><path fill="#ffffff" d="M 102.042969 82.382812 C 101.632812 83.480469 101.316406 85.027344 101.484375 85.027344 C 101.601562 85.027344 102.246094 83.128906 102.347656 82.472656 C 102.394531 82.222656 102.453125 81.925781 102.484375 81.8125 C 102.507812 81.710938 102.484375 81.621094 102.429688 81.621094 C 102.371094 81.621094 102.191406 81.960938 102.042969 82.382812 Z M 102.042969 82.382812 " fill-opacity="1" fill-rule="nonzero"/><path fill="#ffffff" d="M 68.476562 84.695312 C 68.875 85.128906 69.40625 85.730469 69.644531 86.023438 C 70.03125 86.492188 71.925781 89.316406 72.652344 90.507812 C 72.800781 90.746094 72.949219 90.917969 72.972656 90.882812 C 73.0625 90.792969 71.699219 88.273438 70.984375 87.183594 C 70.382812 86.273438 68.136719 83.890625 67.875 83.890625 C 67.816406 83.890625 68.089844 84.253906 68.476562 84.695312 Z M 68.476562 84.695312 " fill-opacity="1" fill-rule="nonzero"/><path fill="#ffffff" d="M 67.398438 84.34375 C 67.613281 84.765625 68.589844 86.070312 69.328125 86.921875 C 69.78125 87.433594 70.644531 88.546875 71.257812 89.386719 C 71.871094 90.238281 72.390625 90.90625 72.414062 90.871094 C 72.484375 90.804688 71.074219 88.453125 70.574219 87.796875 C 69.996094 87.035156 67.238281 84.050781 67.398438 84.34375 Z M 67.398438 84.34375 " fill-opacity="1" fill-rule="nonzero"/><path fill="#ffffff" d="M 76.75 84.992188 C 76.445312 85.207031 76.25 85.414062 76.046875 85.765625 C 75.980469 85.890625 76.160156 85.773438 76.445312 85.503906 C 77.296875 84.730469 77.464844 84.789062 78.5 86.183594 C 78.964844 86.820312 79.328125 87.375 79.292969 87.410156 C 79.261719 87.445312 78.886719 87.105469 78.476562 86.660156 C 78.054688 86.207031 77.625 85.820312 77.523438 85.773438 C 77.226562 85.683594 76.683594 86.207031 76.445312 86.820312 C 76.125 87.648438 76.195312 88.738281 76.636719 89.894531 C 77.273438 91.53125 77.570312 91.929688 77.035156 90.429688 C 76.605469 89.203125 76.457031 88.136719 76.625 87.457031 C 76.796875 86.808594 77.160156 86.160156 77.375 86.160156 C 77.453125 86.160156 77.941406 86.648438 78.464844 87.238281 C 78.988281 87.828125 79.453125 88.316406 79.5 88.316406 C 79.65625 88.316406 79.816406 87.75 79.746094 87.476562 C 79.679688 87.171875 78.464844 85.535156 78 85.105469 C 77.601562 84.753906 77.160156 84.707031 76.75 84.992188 Z M 76.75 84.992188 " fill-opacity="1" fill-rule="nonzero"/><path fill="#ffffff" d="M 72.664062 85.46875 C 72.664062 85.503906 72.878906 85.605469 73.140625 85.683594 C 74.195312 86.015625 74.492188 86.398438 75.421875 88.714844 C 77.148438 93.007812 77.453125 93.496094 76.367188 90.226562 C 75.355469 87.207031 74.808594 86.171875 73.992188 85.753906 C 73.640625 85.570312 72.664062 85.355469 72.664062 85.46875 Z M 72.664062 85.46875 " fill-opacity="1" fill-rule="nonzero"/><path fill="#ffffff" d="M 53.652344 85.660156 C 54.503906 86.128906 55.183594 86.648438 55.886719 87.363281 C 57.988281 89.511719 59.203125 91.859375 61.824219 98.808594 C 64.628906 106.277344 66.082031 109.058594 68.292969 111.28125 C 69.371094 112.359375 69.722656 112.507812 68.75 111.464844 C 66.386719 109 65.160156 106.652344 62.480469 99.5 C 59.722656 92.144531 58.417969 89.601562 56.273438 87.457031 C 55.285156 86.480469 54.207031 85.707031 53.59375 85.546875 C 53.34375 85.480469 53.355469 85.492188 53.652344 85.660156 Z M 53.652344 85.660156 " fill-opacity="1" fill-rule="nonzero"/><path fill="#ffffff" d="M 100.90625 85.957031 C 100.519531 86.511719 100.179688 86.910156 99.171875 87.953125 C 96.582031 90.667969 93.210938 92.257812 89.636719 92.472656 C 86.628906 92.65625 83.039062 91.859375 79.542969 90.246094 C 78.988281 89.988281 78.523438 89.804688 78.5 89.828125 C 78.464844 89.851562 79.078125 90.191406 79.839844 90.566406 C 83.277344 92.269531 86.117188 92.9375 89.410156 92.824219 C 91.609375 92.746094 92.949219 92.417969 94.855469 91.496094 C 96.796875 90.554688 98.410156 89.261719 99.828125 87.535156 C 100.476562 86.75 100.226562 87.296875 99.386719 88.5 C 96.71875 92.3125 95.3125 93.6875 91.917969 95.84375 C 91.347656 96.207031 90.941406 96.492188 90.996094 96.492188 C 91.179688 96.492188 93.039062 95.4375 94.117188 94.730469 C 96.117188 93.414062 97.492188 91.929688 99.386719 89.023438 C 100.214844 87.761719 101.371094 85.59375 101.214844 85.59375 C 101.191406 85.59375 101.054688 85.765625 100.90625 85.957031 Z M 100.90625 85.957031 " fill-opacity="1" fill-rule="nonzero"/><path fill="#ffffff" d="M 75.855469 86.230469 C 75.855469 86.355469 75.886719 86.386719 75.921875 86.296875 C 75.957031 86.21875 75.945312 86.117188 75.910156 86.082031 C 75.878906 86.035156 75.84375 86.105469 75.855469 86.230469 Z M 75.855469 86.230469 " fill-opacity="1" fill-rule="nonzero"/><path fill="#ffffff" d="M 76.851562 92.984375 C 76.625 93.234375 76.523438 93.449219 76.523438 93.722656 C 76.523438 93.9375 76.546875 94.109375 76.582031 94.109375 C 76.605469 94.109375 76.726562 93.914062 76.851562 93.675781 C 76.976562 93.449219 77.183594 93.140625 77.308594 93.007812 C 77.589844 92.699219 77.601562 92.632812 77.363281 92.632812 C 77.261719 92.632812 77.035156 92.789062 76.851562 92.984375 Z M 76.851562 92.984375 " fill-opacity="1" fill-rule="nonzero"/><path fill="#ffffff" d="M 71.449219 92.960938 C 71.03125 93.164062 70.316406 93.960938 70.449219 94.097656 C 70.484375 94.117188 70.679688 93.992188 70.882812 93.789062 C 71.539062 93.152344 72.265625 93.039062 73.414062 93.390625 C 74.027344 93.585938 74.09375 93.640625 74.582031 94.390625 C 74.855469 94.824219 75.242188 95.539062 75.421875 95.980469 C 75.605469 96.410156 76.160156 97.738281 76.671875 98.933594 C 77.910156 101.847656 78.601562 103.789062 78.976562 105.4375 C 79.316406 106.867188 79.554688 107.171875 79.429688 105.980469 C 79.304688 104.925781 79.144531 104.335938 78.738281 103.527344 C 78.476562 103.007812 78.304688 102.449219 78.179688 101.597656 C 77.808594 99.273438 76.433594 95.765625 75.515625 94.832031 C 73.5625 92.835938 72.652344 92.417969 71.449219 92.960938 Z M 75.898438 95.914062 C 76.386719 96.921875 76.160156 96.742188 75.640625 95.707031 C 75.367188 95.164062 75.253906 94.855469 75.378906 95.015625 C 75.503906 95.175781 75.742188 95.570312 75.898438 95.914062 Z M 75.898438 95.914062 " fill-opacity="1" fill-rule="nonzero"/><path fill="#ffffff" d="M 79.15625 94.003906 C 79.625 94.628906 80.101562 95.558594 79.996094 95.664062 C 79.964844 95.707031 79.917969 95.707031 79.894531 95.683594 C 79.328125 94.878906 78.828125 94.3125 78.410156 94.015625 C 78.101562 93.789062 77.886719 93.699219 77.886719 93.789062 C 77.898438 94.355469 78.304688 95.675781 78.839844 96.796875 C 79.191406 97.535156 79.5 98.308594 79.542969 98.511719 C 79.589844 98.714844 79.65625 98.910156 79.703125 98.933594 C 79.917969 99.066406 79.488281 97.59375 78.898438 96.195312 C 78.476562 95.207031 78.351562 94.675781 78.542969 94.675781 C 78.589844 94.675781 78.90625 94.980469 79.261719 95.367188 C 79.917969 96.105469 80.269531 96.207031 80.269531 95.664062 C 80.269531 95.34375 79.53125 94.175781 79.078125 93.765625 C 78.804688 93.515625 78.816406 93.550781 79.15625 94.003906 Z M 79.15625 94.003906 " fill-opacity="1" fill-rule="nonzero"/><path fill="#ffffff" d="M 73.414062 94.1875 L 73.480469 94.789062 L 72.984375 94.5625 C 72.460938 94.324219 71.699219 94.265625 71.585938 94.449219 C 71.539062 94.515625 71.664062 94.5625 71.871094 94.5625 C 72.710938 94.5625 73.277344 95.027344 74.230469 96.492188 C 74.945312 97.582031 75.390625 98.160156 75.390625 97.976562 C 75.390625 97.875 74.332031 95.605469 73.574219 94.050781 L 73.347656 93.597656 Z M 73.414062 94.1875 " fill-opacity="1" fill-rule="nonzero"/><path fill="#ffffff" d="M 77.558594 95.253906 C 77.546875 95.605469 77.671875 96.355469 77.816406 96.898438 C 78.179688 98.25 79.375 102.210938 79.441406 102.28125 C 79.667969 102.507812 78.964844 99.398438 78.398438 97.625 C 78.101562 96.71875 77.808594 95.675781 77.714844 95.300781 L 77.570312 94.617188 Z M 77.558594 95.253906 " fill-opacity="1" fill-rule="nonzero"/><path fill="#ffffff" d="M 71.6875 95.164062 C 72.257812 95.527344 72.640625 95.933594 73.175781 96.773438 C 73.503906 97.273438 74.050781 97.988281 74.390625 98.363281 C 76.183594 100.375 77.511719 102.609375 78.398438 105.152344 C 78.636719 105.824219 78.839844 106.355469 78.863281 106.332031 C 78.929688 106.265625 78.464844 104.484375 78.191406 103.734375 C 77.453125 101.792969 76.445312 100.15625 74.84375 98.332031 C 74.320312 97.738281 73.617188 96.878906 73.265625 96.410156 C 72.902344 95.921875 72.4375 95.457031 72.164062 95.300781 C 71.6875 95.015625 71.269531 94.902344 71.6875 95.164062 Z M 71.6875 95.164062 " fill-opacity="1" fill-rule="nonzero"/><path fill="#ffffff" d="M 80.214844 98.625 C 80.15625 98.671875 80.101562 99.160156 80.089844 99.703125 L 80.089844 100.714844 L 80.28125 100.226562 L 80.464844 99.738281 L 80.667969 100.125 C 80.835938 100.453125 80.859375 100.703125 80.804688 101.792969 C 80.734375 102.917969 80.691406 103.144531 80.417969 103.609375 C 80.15625 104.0625 80.101562 104.109375 80.03125 103.914062 C 79.976562 103.800781 79.863281 103.496094 79.757812 103.257812 C 79.429688 102.429688 79.464844 102.9375 79.863281 104.925781 C 80.089844 106.027344 80.269531 106.945312 80.269531 106.980469 C 80.269531 107.015625 80.066406 107.046875 79.816406 107.046875 C 79.566406 107.046875 79.363281 107.09375 79.363281 107.152344 C 79.363281 107.34375 80.496094 107.457031 81.03125 107.320312 C 81.371094 107.230469 81.246094 107.046875 80.847656 107.046875 C 80.566406 107.046875 80.519531 106.992188 80.453125 106.617188 C 80.339844 105.878906 80.371094 104.5625 80.53125 104.175781 C 80.78125 103.597656 81.835938 102.507812 82.15625 102.507812 C 82.414062 102.507812 82.425781 102.554688 82.425781 103.15625 C 82.425781 103.710938 82.359375 103.902344 81.972656 104.5625 C 81.6875 105.015625 81.472656 105.550781 81.417969 105.890625 C 81.316406 106.527344 81.449219 106.605469 81.5625 105.980469 C 81.609375 105.765625 81.871094 105.253906 82.15625 104.847656 C 82.890625 103.757812 83.085938 102.460938 82.539062 102.167969 C 82.175781 101.972656 81.882812 102.042969 81.460938 102.40625 C 81.234375 102.609375 81.03125 102.746094 81.007812 102.722656 C 80.984375 102.6875 81.007812 102.472656 81.066406 102.222656 C 81.121094 101.972656 81.179688 101.429688 81.179688 101.019531 C 81.179688 100.386719 81.109375 100.125 80.769531 99.398438 C 80.542969 98.921875 80.351562 98.535156 80.339844 98.535156 C 80.339844 98.535156 80.28125 98.578125 80.214844 98.625 Z M 80.214844 98.625 " fill-opacity="1" fill-rule="nonzero"/><path fill="#ffffff" d="M 84.855469 105.015625 C 84.492188 105.277344 83.980469 105.664062 83.734375 105.867188 C 83.484375 106.070312 82.972656 106.425781 82.597656 106.640625 C 82.234375 106.867188 82.019531 107.046875 82.132812 107.046875 C 82.460938 107.046875 83.425781 106.515625 84.425781 105.800781 C 85.683594 104.878906 85.867188 104.8125 86.242188 105.0625 C 86.523438 105.242188 86.535156 105.300781 86.492188 105.96875 C 86.457031 106.527344 86.378906 106.765625 86.140625 107.082031 C 85.753906 107.59375 85.742188 107.742188 86.128906 107.378906 C 86.875 106.671875 87.113281 105.367188 86.570312 104.835938 C 86.148438 104.402344 85.664062 104.460938 84.855469 105.015625 Z M 84.855469 105.015625 " fill-opacity="1" fill-rule="nonzero"/><path fill="#ffffff" d="M 77.320312 107.648438 C 75.582031 108.238281 74.492188 109.214844 72.914062 111.566406 C 71.65625 113.460938 70.304688 114.925781 68.863281 115.9375 C 67.738281 116.71875 67.398438 117.027344 67.101562 117.515625 C 66.761719 118.082031 66.828125 118.160156 67.203125 117.628906 C 67.410156 117.34375 68.089844 116.800781 68.941406 116.21875 C 70.871094 114.914062 71.824219 113.949219 73.175781 111.871094 C 74.84375 109.328125 75.617188 108.601562 77.511719 107.773438 C 78.523438 107.34375 78.417969 107.273438 77.320312 107.648438 Z M 77.320312 107.648438 " fill-opacity="1" fill-rule="nonzero"/><path fill="#ffffff" d="M 81.699219 107.59375 C 81.484375 107.683594 81.484375 107.695312 81.699219 107.773438 C 81.8125 107.832031 82.710938 107.886719 83.675781 107.910156 C 85.390625 107.945312 85.421875 107.945312 84.8125 107.785156 C 84.0625 107.582031 82.007812 107.46875 81.699219 107.59375 Z M 81.699219 107.59375 " fill-opacity="1" fill-rule="nonzero"/><path fill="#ffffff" d="M 85.492188 109.261719 C 85.492188 109.738281 85.515625 109.785156 85.671875 109.660156 C 85.878906 109.488281 85.84375 108.851562 85.640625 108.773438 C 85.539062 108.75 85.492188 108.886719 85.492188 109.261719 Z M 85.492188 109.261719 " fill-opacity="1" fill-rule="nonzero"/><path fill="#ffffff" d="M 86.171875 109.273438 C 86.171875 109.625 86.433594 109.589844 86.492188 109.226562 C 86.511719 109.058594 86.46875 108.976562 86.355469 108.976562 C 86.230469 108.976562 86.171875 109.082031 86.171875 109.273438 Z M 86.171875 109.273438 " fill-opacity="1" fill-rule="nonzero"/><path fill="#ffffff" d="M 87.433594 110.054688 C 87.421875 110.125 87.523438 110.53125 87.648438 110.964844 C 88.214844 112.929688 88.195312 113.234375 87.535156 112.417969 C 87.023438 111.769531 86.546875 111.40625 85.945312 111.191406 C 85.515625 111.042969 83.222656 110.816406 83.335938 110.941406 C 83.371094 110.976562 83.878906 111.054688 84.46875 111.125 C 86.148438 111.328125 86.71875 111.679688 87.613281 113.054688 C 88.089844 113.792969 88.273438 113.699219 88.261719 112.746094 C 88.25 112.304688 88.125 111.757812 87.839844 111.019531 C 87.613281 110.429688 87.433594 110 87.433594 110.054688 Z M 87.433594 110.054688 " fill-opacity="1" fill-rule="nonzero"/><path fill="#ffffff" d="M 84.46875 112.339844 C 84.335938 112.703125 84.324219 113.519531 84.457031 113.734375 C 84.582031 113.9375 84.652344 113.6875 84.742188 112.691406 C 84.800781 112.007812 84.664062 111.828125 84.46875 112.339844 Z M 84.46875 112.339844 " fill-opacity="1" fill-rule="nonzero"/><path fill="#ffffff" d="M 86.171875 112.578125 C 86.082031 112.871094 85.992188 113.191406 85.96875 113.257812 C 85.890625 113.550781 86.183594 113.394531 86.398438 113.03125 C 86.660156 112.597656 86.671875 112.496094 86.480469 112.222656 C 86.355469 112.054688 86.320312 112.089844 86.171875 112.578125 Z M 86.171875 112.578125 " fill-opacity="1" fill-rule="nonzero"/><path fill="#ffffff" d="M 69.847656 112.566406 C 69.964844 112.679688 70.078125 112.746094 70.097656 112.710938 C 70.132812 112.679688 70.042969 112.585938 69.90625 112.507812 C 69.667969 112.359375 69.667969 112.371094 69.847656 112.566406 Z M 69.847656 112.566406 " fill-opacity="1" fill-rule="nonzero"/><path fill="#ffffff" d="M 85.402344 112.746094 C 85.207031 113.371094 85.128906 113.972656 85.242188 113.972656 C 85.402344 113.972656 85.71875 113.121094 85.71875 112.722656 C 85.71875 112.269531 85.539062 112.292969 85.402344 112.746094 Z M 85.402344 112.746094 " fill-opacity="1" fill-rule="nonzero"/><path fill="#ffffff" d="M 81.40625 114.007812 C 80.917969 114.132812 80.972656 114.144531 82.3125 114.210938 C 84.492188 114.3125 85.992188 114.8125 86.753906 115.699219 C 87.125 116.128906 87.195312 116.164062 87.363281 116.015625 C 87.695312 115.742188 88.214844 114.734375 88.203125 114.371094 C 88.203125 114.03125 88.203125 114.03125 88.058594 114.460938 C 87.964844 114.6875 87.761719 115.0625 87.59375 115.289062 L 87.273438 115.699219 L 86.832031 115.242188 C 86.355469 114.746094 85.082031 114.175781 83.992188 113.972656 C 83.253906 113.824219 82.0625 113.847656 81.40625 114.007812 Z M 81.40625 114.007812 " fill-opacity="1" fill-rule="nonzero"/><path fill="#ffffff" d="M 68.15625 115.414062 C 68.261719 115.4375 68.417969 115.4375 68.5 115.414062 C 68.566406 115.378906 68.488281 115.359375 68.292969 115.359375 C 68.113281 115.359375 68.042969 115.378906 68.15625 115.414062 Z M 68.15625 115.414062 " fill-opacity="1" fill-rule="nonzero"/><path fill="#ffffff" d="M 85.503906 115.722656 C 85.320312 115.949219 85.300781 116.777344 85.46875 116.945312 C 85.664062 117.140625 85.742188 116.832031 85.695312 116.128906 C 85.664062 115.597656 85.640625 115.550781 85.503906 115.722656 Z M 85.503906 115.722656 " fill-opacity="1" fill-rule="nonzero"/><path fill="#ffffff" d="M 86.140625 115.867188 C 86.015625 115.980469 86.046875 116.925781 86.171875 116.925781 C 86.367188 116.925781 86.523438 116.457031 86.457031 116.117188 C 86.390625 115.789062 86.285156 115.710938 86.140625 115.867188 Z M 86.140625 115.867188 " fill-opacity="1" fill-rule="nonzero"/><path fill="#ffffff" d="M 86.921875 116.640625 C 86.820312 116.800781 86.570312 117.027344 86.378906 117.152344 C 86.058594 117.34375 85.855469 117.355469 84.015625 117.296875 C 81.40625 117.207031 80.734375 117.367188 82.882812 117.558594 C 85.308594 117.785156 85.957031 117.765625 86.398438 117.457031 C 86.773438 117.21875 87.273438 116.515625 87.171875 116.402344 C 87.136719 116.378906 87.023438 116.480469 86.921875 116.640625 Z M 86.921875 116.640625 " fill-opacity="1" fill-rule="nonzero"/><path fill="#ffffff" d="M 33.910156 80.78125 C 33.785156 81.097656 33.84375 81.5625 34.011719 81.8125 C 34.21875 82.097656 34.464844 82.152344 36.148438 82.246094 C 37.132812 82.300781 37.359375 82.277344 37.359375 82.152344 C 37.359375 81.996094 36.226562 81.847656 35.011719 81.847656 C 34.375 81.847656 34.136719 81.609375 34.226562 81.03125 C 34.285156 80.703125 34.261719 80.597656 34.136719 80.597656 C 34.046875 80.597656 33.945312 80.679688 33.910156 80.78125 Z M 33.910156 80.78125 " fill-opacity="1" fill-rule="nonzero"/><path fill="#ffffff" d="M 129.875 86.285156 C 128.546875 86.820312 128.355469 88.625 129.535156 89.417969 C 130.023438 89.761719 130.910156 89.769531 131.441406 89.453125 C 132.589844 88.75 132.523438 86.980469 131.316406 86.398438 C 130.785156 86.136719 130.332031 86.105469 129.875 86.285156 Z M 131.488281 86.933594 C 132.136719 87.582031 132.011719 88.773438 131.238281 89.167969 C 130.839844 89.375 130.136719 89.386719 129.785156 89.179688 C 129.398438 88.976562 129.082031 88.433594 129.082031 88 C 129.082031 86.71875 130.601562 86.035156 131.488281 86.933594 Z M 131.488281 86.933594 " fill-opacity="1" fill-rule="nonzero"/><path fill="#ffffff" d="M 35.613281 86.730469 C 35.011719 86.785156 34.625 86.886719 34.421875 87.035156 C 33.761719 87.535156 33.855469 88.839844 34.578125 89.191406 C 34.898438 89.339844 35.148438 89.351562 36.238281 89.273438 C 37.144531 89.203125 37.53125 89.125 37.566406 89.011719 C 37.609375 88.886719 37.382812 88.875 36.203125 88.941406 L 34.785156 89.023438 L 34.535156 88.714844 C 34.238281 88.339844 34.226562 87.75 34.5 87.421875 C 34.660156 87.21875 34.898438 87.160156 36.03125 87.046875 C 36.976562 86.945312 37.359375 86.863281 37.359375 86.761719 C 37.359375 86.605469 37.066406 86.59375 35.613281 86.730469 Z M 35.613281 86.730469 " fill-opacity="1" fill-rule="nonzero"/><path fill="#ffffff" d="M 36.566406 94.335938 C 35.679688 94.992188 35.125 95.480469 35.214844 95.515625 C 35.589844 95.640625 38.894531 96.140625 38.9375 96.082031 C 39.109375 95.921875 38.519531 95.71875 37.316406 95.539062 C 36.589844 95.425781 36 95.289062 36 95.242188 C 36 95.195312 36.511719 94.789062 37.132812 94.335938 C 38.121094 93.609375 38.496094 93.199219 38.179688 93.199219 C 38.121094 93.199219 37.40625 93.710938 36.566406 94.335938 Z M 36.566406 94.335938 " fill-opacity="1" fill-rule="nonzero"/><path fill="#ffffff" d="M 127.878906 93.902344 C 127.753906 94.097656 127.957031 94.175781 129.421875 94.492188 C 130.207031 94.664062 130.933594 94.832031 131.046875 94.855469 C 131.171875 94.902344 131.238281 94.855469 131.238281 94.742188 C 131.238281 94.5625 130.945312 94.460938 129.535156 94.175781 C 129.070312 94.074219 128.515625 93.949219 128.320312 93.890625 C 128.070312 93.824219 127.925781 93.824219 127.878906 93.902344 Z M 127.878906 93.902344 " fill-opacity="1" fill-rule="nonzero"/><path fill="#ffffff" d="M 126.585938 98.578125 C 126.585938 98.773438 126.628906 98.808594 127.933594 99.285156 C 128.480469 99.476562 128.71875 99.613281 128.617188 99.667969 C 128.527344 99.714844 127.84375 99.917969 127.09375 100.125 C 126.347656 100.316406 125.722656 100.5 125.699219 100.507812 C 125.621094 100.589844 128.96875 101.722656 129.082031 101.65625 C 129.296875 101.53125 129.105469 101.40625 128.058594 101.042969 C 127.503906 100.839844 127.015625 100.632812 126.992188 100.589844 C 126.960938 100.554688 127.605469 100.339844 128.414062 100.125 C 129.21875 99.90625 129.875 99.703125 129.875 99.667969 C 129.875 99.636719 129.171875 99.351562 128.320312 99.046875 C 127.46875 98.726562 126.730469 98.457031 126.675781 98.445312 C 126.628906 98.421875 126.585938 98.488281 126.585938 98.578125 Z M 126.585938 98.578125 " fill-opacity="1" fill-rule="nonzero"/><path fill="#ffffff" d="M 38.835938 100.589844 C 38.246094 100.828125 37.597656 101.101562 37.394531 101.191406 L 37.042969 101.359375 L 37.382812 102.269531 C 37.589844 102.804688 37.804688 103.1875 37.882812 103.1875 C 38.085938 103.1875 38.085938 103.210938 37.757812 102.324219 C 37.597656 101.917969 37.476562 101.554688 37.476562 101.542969 C 37.476562 101.453125 38.496094 101.132812 38.585938 101.191406 C 38.65625 101.226562 38.792969 101.519531 38.90625 101.835938 C 39.097656 102.371094 39.324219 102.621094 39.472656 102.484375 C 39.496094 102.449219 39.394531 102.132812 39.234375 101.769531 C 39.074219 101.40625 38.960938 101.054688 38.984375 100.988281 C 39.019531 100.917969 39.269531 100.769531 39.550781 100.667969 L 40.074219 100.476562 L 40.390625 101.269531 C 40.5625 101.703125 40.765625 102.03125 40.824219 102.007812 C 40.972656 101.960938 40.9375 101.835938 40.574219 100.882812 C 40.371094 100.375 40.222656 100.125 40.097656 100.136719 C 39.996094 100.136719 39.425781 100.339844 38.835938 100.589844 Z M 38.835938 100.589844 " fill-opacity="1" fill-rule="nonzero"/><path fill="#ffffff" d="M 123.859375 105.367188 C 123.234375 105.800781 123.007812 106.195312 123.007812 106.867188 C 123.007812 108.601562 125.246094 109.296875 126.1875 107.855469 C 126.753906 107.015625 126.539062 105.945312 125.675781 105.378906 C 125.164062 105.027344 124.371094 105.027344 123.859375 105.367188 Z M 125.4375 105.617188 C 126.097656 105.96875 126.335938 106.890625 125.949219 107.628906 C 125.632812 108.261719 124.667969 108.480469 123.996094 108.070312 C 123.203125 107.582031 123.109375 106.527344 123.804688 105.832031 C 124.109375 105.527344 124.269531 105.460938 124.644531 105.460938 C 124.90625 105.460938 125.269531 105.539062 125.4375 105.617188 Z M 125.4375 105.617188 " fill-opacity="1" fill-rule="nonzero"/><path fill="#ffffff" d="M 122.632812 105.3125 C 122.488281 105.34375 122.339844 105.4375 122.304688 105.527344 C 122.214844 105.765625 122.507812 106.402344 122.632812 106.277344 C 122.703125 106.207031 122.703125 106.082031 122.621094 105.9375 C 122.453125 105.605469 122.464844 105.59375 122.804688 105.550781 C 122.964844 105.527344 123.121094 105.449219 123.15625 105.367188 C 123.203125 105.230469 123.109375 105.21875 122.632812 105.3125 Z M 122.632812 105.3125 " fill-opacity="1" fill-rule="nonzero"/><path fill="#ffffff" d="M 41.449219 106.777344 C 40.664062 107.242188 40.027344 107.683594 40.027344 107.761719 C 40.027344 107.96875 40.152344 107.921875 41.199219 107.332031 C 41.71875 107.035156 42.164062 106.820312 42.195312 106.84375 C 42.21875 106.878906 41.957031 107.503906 41.617188 108.238281 C 41.265625 108.976562 41.003906 109.601562 41.027344 109.625 C 41.097656 109.691406 44.058594 107.945312 44.058594 107.84375 C 44.058594 107.59375 43.796875 107.671875 42.933594 108.183594 C 42.082031 108.707031 41.789062 108.832031 41.789062 108.707031 C 41.789062 108.671875 42.070312 108.058594 42.414062 107.332031 C 42.753906 106.59375 43.035156 105.980469 43.035156 105.957031 C 43.035156 105.84375 42.777344 105.980469 41.449219 106.777344 Z M 41.449219 106.777344 " fill-opacity="1" fill-rule="nonzero"/><path fill="#ffffff" d="M 119.636719 111.554688 C 119 112.394531 118.945312 112.472656 119.035156 112.609375 C 119.070312 112.679688 119.230469 112.578125 119.386719 112.382812 L 119.683594 112.042969 L 120.863281 112.949219 C 121.523438 113.449219 122.101562 113.859375 122.15625 113.859375 C 122.476562 113.859375 122.167969 113.496094 121.292969 112.835938 C 119.683594 111.613281 119.832031 111.792969 120.125 111.429688 C 120.285156 111.226562 120.328125 111.078125 120.25 111 C 120.183594 110.929688 119.976562 111.101562 119.636719 111.554688 Z M 119.636719 111.554688 " fill-opacity="1" fill-rule="nonzero"/><path fill="#ffffff" d="M 46.285156 111.464844 C 46.25 111.519531 46.328125 111.703125 46.453125 111.871094 C 46.738281 112.222656 46.839844 112.101562 45.328125 113.28125 C 44.398438 114.019531 44.171875 114.277344 44.410156 114.347656 C 44.457031 114.359375 45.035156 113.9375 45.703125 113.417969 L 46.917969 112.464844 L 47.167969 112.78125 C 47.328125 112.972656 47.488281 113.066406 47.554688 113.019531 C 47.644531 112.960938 47.5 112.691406 47.101562 112.15625 C 46.5 111.363281 46.398438 111.28125 46.285156 111.464844 Z M 46.285156 111.464844 " fill-opacity="1" fill-rule="nonzero"/><path fill="#ffffff" d="M 115.992188 115.753906 C 115.949219 115.789062 116.300781 116.230469 116.777344 116.71875 C 117.253906 117.207031 117.628906 117.628906 117.605469 117.652344 C 117.582031 117.671875 116.925781 117.570312 116.140625 117.421875 C 115.359375 117.277344 114.644531 117.164062 114.550781 117.152344 C 114.460938 117.152344 114.949219 117.707031 115.628906 118.398438 C 116.730469 119.511719 117.164062 119.832031 117.164062 119.570312 C 117.164062 119.523438 116.765625 119.082031 116.289062 118.605469 C 115.800781 118.117188 115.484375 117.71875 115.574219 117.71875 C 115.664062 117.71875 116.324219 117.820312 117.039062 117.945312 C 117.742188 118.070312 118.410156 118.171875 118.515625 118.171875 C 118.617188 118.171875 118.152344 117.628906 117.445312 116.925781 C 116.765625 116.230469 116.175781 115.675781 116.128906 115.675781 C 116.097656 115.675781 116.027344 115.710938 115.992188 115.753906 Z M 115.992188 115.753906 " fill-opacity="1" fill-rule="nonzero"/><path fill="#ffffff" d="M 49.40625 117.039062 C 48.589844 117.957031 48.484375 118.117188 48.484375 118.511719 C 48.484375 119.363281 49.554688 120.089844 50.269531 119.714844 C 50.449219 119.625 50.972656 119.160156 51.425781 118.683594 C 52.050781 118.015625 52.21875 117.777344 52.117188 117.671875 C 52.015625 117.582031 51.777344 117.777344 51.121094 118.480469 C 50.640625 118.988281 50.132812 119.433594 49.996094 119.476562 C 49.699219 119.558594 49.109375 119.273438 48.941406 118.980469 C 48.667969 118.445312 48.792969 118.140625 49.675781 117.265625 C 50.425781 116.515625 50.734375 116.015625 50.425781 116.015625 C 50.382812 116.015625 49.917969 116.480469 49.40625 117.039062 Z M 49.40625 117.039062 " fill-opacity="1" fill-rule="nonzero"/><path fill="#ffffff" d="M 55.046875 121.328125 C 54.761719 121.75 54.308594 122.382812 54.058594 122.734375 L 53.59375 123.382812 L 54.082031 123.710938 C 54.742188 124.167969 55.296875 124.3125 55.839844 124.167969 C 56.921875 123.871094 57.429688 122.667969 56.875 121.703125 C 56.691406 121.386719 55.773438 120.546875 55.613281 120.558594 C 55.59375 120.558594 55.34375 120.910156 55.046875 121.328125 Z M 56.363281 121.578125 C 56.816406 122.089844 56.898438 122.589844 56.601562 123.167969 C 56.363281 123.644531 56 123.847656 55.421875 123.847656 C 54.945312 123.847656 54.160156 123.496094 54.160156 123.28125 C 54.160156 123.054688 55.59375 121.136719 55.761719 121.125 C 55.863281 121.125 56.136719 121.328125 56.363281 121.578125 Z M 56.363281 121.578125 " fill-opacity="1" fill-rule="nonzero"/><path fill="#ffffff" d="M 110.125 120.761719 C 110.136719 120.941406 111 124.3125 111.066406 124.371094 C 111.25 124.550781 111.339844 124.269531 111.238281 123.847656 C 111.101562 123.316406 111.15625 123.214844 111.871094 122.726562 L 112.351562 122.40625 L 112.746094 122.667969 C 113.007812 122.828125 113.210938 122.882812 113.316406 122.828125 C 113.394531 122.769531 113.441406 122.703125 113.417969 122.679688 C 113.144531 122.464844 110.125 120.691406 110.125 120.761719 Z M 111.316406 121.75 C 111.65625 121.976562 111.941406 122.191406 111.941406 122.238281 C 111.929688 122.371094 111.054688 122.953125 111 122.859375 C 110.964844 122.804688 110.886719 122.542969 110.804688 122.257812 C 110.738281 121.976562 110.660156 121.65625 110.625 121.542969 C 110.542969 121.273438 110.601562 121.292969 111.316406 121.75 Z M 111.316406 121.75 " fill-opacity="1" fill-rule="nonzero"/><path fill="#ffffff" d="M 60.710938 125.777344 C 60.292969 126.585938 59.949219 127.277344 59.949219 127.300781 C 59.949219 127.445312 61.753906 128.265625 61.824219 128.152344 C 61.925781 128.003906 61.960938 128.027344 61.121094 127.605469 C 60.722656 127.414062 60.40625 127.21875 60.40625 127.1875 C 60.40625 127.128906 60.859375 126.210938 60.914062 126.140625 C 60.9375 126.117188 61.269531 126.265625 61.652344 126.460938 C 62.128906 126.699219 62.402344 126.777344 62.480469 126.699219 C 62.5625 126.617188 62.355469 126.472656 61.847656 126.222656 C 61.144531 125.871094 61.121094 125.835938 61.210938 125.5625 C 61.269531 125.402344 61.414062 125.144531 61.527344 124.996094 L 61.734375 124.734375 L 62.425781 125.085938 C 63.21875 125.484375 63.242188 125.496094 63.242188 125.289062 C 63.242188 125.1875 61.699219 124.300781 61.507812 124.300781 C 61.484375 124.300781 61.132812 124.960938 60.710938 125.777344 Z M 60.710938 125.777344 " fill-opacity="1" fill-rule="nonzero"/><path fill="#ffffff" d="M 99.679688 126.550781 C 99.296875 126.605469 98.695312 127.082031 98.476562 127.492188 C 97.84375 128.730469 98.933594 130.25 100.304688 130.035156 C 101.179688 129.910156 101.839844 129.136719 101.839844 128.265625 C 101.839844 127.789062 101.351562 126.957031 100.953125 126.753906 C 100.578125 126.574219 100.054688 126.480469 99.679688 126.550781 Z M 100.894531 127.164062 C 101.40625 127.46875 101.601562 128.117188 101.371094 128.765625 C 101.144531 129.398438 100.714844 129.695312 100 129.695312 C 99.488281 129.695312 99.398438 129.648438 99.046875 129.273438 C 98.546875 128.71875 98.5 127.992188 98.945312 127.414062 C 99.421875 126.789062 100.136719 126.699219 100.894531 127.164062 Z M 100.894531 127.164062 " fill-opacity="1" fill-rule="nonzero"/><path fill="#ffffff" d="M 93.269531 128.527344 C 93.019531 128.582031 92.621094 128.683594 92.394531 128.742188 C 92.15625 128.808594 91.960938 128.910156 91.960938 128.980469 C 91.960938 129.058594 92.109375 129.070312 92.394531 129.035156 L 92.8125 128.96875 L 93.0625 130.070312 C 93.199219 130.671875 93.347656 131.363281 93.394531 131.589844 C 93.4375 131.851562 93.527344 132.023438 93.621094 132.023438 C 93.835938 132.023438 93.824219 131.910156 93.496094 130.386719 C 93.335938 129.660156 93.210938 129.023438 93.210938 128.96875 C 93.210938 128.910156 93.394531 128.832031 93.621094 128.796875 C 93.835938 128.753906 94.003906 128.660156 93.984375 128.59375 C 93.914062 128.410156 93.789062 128.402344 93.269531 128.527344 Z M 93.269531 128.527344 " fill-opacity="1" fill-rule="nonzero"/><path fill="#ffffff" d="M 72.496094 128.640625 C 72.152344 128.820312 71.984375 129.082031 71.984375 129.398438 C 71.996094 129.808594 72.164062 130 72.925781 130.433594 C 73.699219 130.863281 73.84375 131.066406 73.652344 131.464844 C 73.390625 131.976562 72.3125 131.886719 72.007812 131.328125 C 71.8125 131 71.53125 130.886719 71.53125 131.148438 C 71.53125 131.410156 71.894531 131.816406 72.277344 131.976562 C 72.847656 132.214844 73.402344 132.179688 73.730469 131.875 C 74.378906 131.296875 74.164062 130.703125 73.074219 130.113281 C 72.371094 129.730469 72.234375 129.523438 72.414062 129.136719 C 72.527344 128.890625 72.621094 128.84375 73.015625 128.84375 C 73.390625 128.84375 73.550781 128.910156 73.8125 129.195312 C 74.195312 129.605469 74.425781 129.605469 74.21875 129.183594 C 73.957031 128.648438 73.015625 128.355469 72.496094 128.640625 Z M 72.496094 128.640625 " fill-opacity="1" fill-rule="nonzero"/><path fill="#ffffff" d="M 79.089844 131.078125 C 78.613281 132.03125 78.226562 132.839844 78.226562 132.875 C 78.226562 132.90625 78.304688 132.929688 78.398438 132.929688 C 78.488281 132.929688 78.667969 132.726562 78.792969 132.464844 L 79.03125 132 L 79.738281 132.078125 C 80.121094 132.125 80.472656 132.191406 80.507812 132.238281 C 80.554688 132.273438 80.644531 132.5 80.722656 132.726562 C 80.792969 132.964844 80.929688 133.15625 81.019531 133.15625 C 81.109375 133.15625 81.179688 133.121094 81.179688 133.066406 C 81.179688 133.019531 80.90625 132.167969 80.566406 131.171875 L 79.964844 129.355469 Z M 80.144531 130.910156 C 80.28125 131.296875 80.382812 131.660156 80.382812 131.703125 C 80.382812 131.804688 79.578125 131.828125 79.316406 131.726562 C 79.167969 131.667969 79.203125 131.546875 79.507812 130.933594 C 79.703125 130.535156 79.871094 130.207031 79.882812 130.207031 C 79.894531 130.207031 80.019531 130.523438 80.144531 130.910156 Z M 80.144531 130.910156 " fill-opacity="1" fill-rule="nonzero"/><path fill="#ffffff" d="M 87.59375 129.523438 C 87.546875 129.605469 87.546875 130.183594 87.59375 130.820312 C 87.660156 131.804688 87.648438 131.941406 87.5 131.792969 C 87.421875 131.703125 86.945312 131.148438 86.457031 130.570312 C 85.96875 129.988281 85.558594 129.535156 85.546875 129.546875 C 85.527344 129.570312 85.582031 130.320312 85.671875 131.226562 C 85.753906 132.136719 85.820312 132.90625 85.832031 132.953125 C 85.832031 133.007812 85.910156 133.042969 86.003906 133.042969 C 86.140625 133.042969 86.171875 132.953125 86.128906 132.667969 C 86.035156 132.113281 85.933594 130.546875 85.980469 130.546875 C 86.003906 130.546875 86.480469 131.101562 87.035156 131.785156 C 87.59375 132.464844 88.070312 133.007812 88.082031 132.988281 C 88.160156 132.90625 87.851562 129.582031 87.761719 129.492188 C 87.71875 129.433594 87.636719 129.457031 87.59375 129.523438 Z M 87.59375 129.523438 " fill-opacity="1" fill-rule="nonzero"/></svg>